<svg version="1.1" id="Layer_1" xmlns="http://www.w3.org/2000/svg" xmlns:xlink="http://www.w3.org/1999/xlink" x="0px" y="0px"
	 width="100%" viewBox="0 0 1024 1024" enable-background="new 0 0 1024 1024" xml:space="preserve">
<path fill="#000000" opacity="0.000000" stroke="none" 
	d="
M783.000000,1025.000000 
	C522.363037,1025.000000 261.726105,1025.000000 1.044583,1025.000000 
	C1.044583,683.735291 1.044583,342.470612 1.044583,1.102963 
	C342.225769,1.102963 683.451538,1.102963 1025.000000,1.102963 
	C1025.000000,261.362610 1025.000000,521.725403 1024.588989,782.661743 
	C1023.849060,782.888367 1023.305298,782.585999 1023.222534,782.187744 
	C1021.061707,771.795471 1018.948730,761.393250 1016.753235,750.631104 
	C1013.479004,741.899231 1010.419983,733.471802 1007.050293,725.170410 
	C999.546875,706.685181 988.776367,690.184326 975.908325,674.602783 
	C973.739624,671.930237 971.803528,669.473938 969.670410,667.202637 
	C955.290161,651.890503 939.201111,638.679993 920.945923,627.626648 
	C919.449646,626.672974 918.081360,626.110413 916.815857,625.371765 
	C902.248108,616.868042 886.650818,610.820801 870.538269,606.032410 
	C865.422791,604.512268 860.221619,603.280823 855.031982,601.456604 
	C854.944092,595.655640 854.883972,590.315308 854.879700,584.511108 
	C854.899231,577.360229 854.862915,570.673279 854.887207,563.522095 
	C854.968018,463.197723 854.988647,363.337677 855.001282,263.477600 
	C855.001343,262.649170 854.892212,261.820770 854.896240,260.527863 
	C854.972046,217.945999 855.010437,175.828568 854.956726,133.711273 
	C854.951904,129.948380 854.312561,126.189003 854.030823,122.423286 
	C852.553467,102.675232 832.140442,85.523193 811.876770,85.882828 
	C785.748840,86.346542 759.606445,85.974937 733.470276,85.999573 
	C709.667969,86.022003 685.865723,86.093208 661.589844,86.091713 
	C631.980591,86.040512 602.844971,86.040512 575.211182,86.040512 
	C570.038757,78.472687 565.436218,71.738640 560.817871,64.669632 
	C527.797607,28.473835 469.351807,39.723713 452.204926,86.171265 
	C422.875122,86.171265 393.419617,86.171265 363.502930,86.097443 
	C312.420044,86.014168 261.798309,85.972069 211.176865,86.072578 
	C207.982635,86.078918 204.692856,86.884857 201.613571,87.849068 
	C182.870743,93.717888 171.204300,109.812164 171.056641,129.147247 
	C170.834106,158.286362 170.982346,187.428467 171.010742,216.569275 
	C171.036209,242.709778 171.112610,268.850250 171.095520,295.455292 
	C171.020630,384.113861 171.016373,472.307831 171.019302,560.501831 
	C171.019333,561.330933 171.115494,562.160095 171.096481,563.453979 
	C171.021255,644.447571 171.015839,724.976379 171.017776,805.505188 
	C171.017792,806.334167 171.114700,807.163208 171.097809,808.456909 
	C171.017883,828.878174 170.888229,848.835571 171.039688,868.790771 
	C171.130096,880.703918 170.994354,892.678711 172.147293,904.510071 
	C173.979568,923.312683 191.637863,939.008667 210.129837,939.821106 
	C227.386887,940.579407 244.707672,939.887451 262.463135,939.900391 
	C374.447845,939.972534 485.969818,939.978455 597.491760,939.977966 
	C598.321777,939.977966 599.151733,939.890381 600.446899,939.914490 
	C614.199707,939.974792 627.487305,939.964172 640.938354,940.267395 
	C650.790588,953.907410 662.110535,965.679199 675.055786,976.356750 
	C685.697571,983.831787 695.860413,991.546265 706.758179,998.024353 
	C720.236755,1006.036560 734.653015,1012.232422 750.168152,1016.422546 
	C760.944214,1018.869812 771.508118,1020.982605 782.049805,1023.200928 
	C782.473938,1023.290161 782.688049,1024.377563 783.000000,1025.000000 
z"/>
<path fill="#000000" opacity="1.000000" stroke="none" 
	d="
M1025.000000,841.000000 
	C1025.000000,902.260315 1025.000000,963.520691 1025.000000,1025.000000 
	C963.979309,1025.000000 902.958313,1025.000000 841.371582,1024.592407 
	C841.151794,1023.853516 841.466125,1023.275330 841.848083,1023.226501 
	C857.858337,1021.181885 873.328369,1017.112183 888.392578,1011.313232 
	C912.409058,1002.067932 934.233459,989.119507 953.361389,971.979309 
	C975.875366,951.804993 993.790833,928.078003 1006.286621,900.383362 
	C1013.749878,883.842407 1019.287476,866.766968 1022.105774,848.806885 
	C1022.527466,846.119385 1024.008789,843.598145 1025.000000,841.000000 
z"/>
<path fill="#67737D" opacity="1.000000" stroke="none" 
	d="
M1025.000000,840.531372 
	C1024.008789,843.598145 1022.527466,846.119385 1022.105774,848.806885 
	C1019.287476,866.766968 1013.749878,883.842407 1006.286621,900.383362 
	C993.790833,928.078003 975.875366,951.804993 953.361389,971.979309 
	C934.233459,989.119507 912.409058,1002.067932 888.392578,1011.313232 
	C873.328369,1017.112183 857.858337,1021.181885 841.848083,1023.226501 
	C841.466125,1023.275330 841.151794,1023.853516 840.902954,1024.592407 
	C832.645752,1025.000000 824.291504,1025.000000 815.558594,1024.671753 
	C823.062500,1018.889771 829.869751,1012.339661 836.759888,1003.874878 
	C832.586243,1003.107056 829.591309,1002.119934 826.581482,1002.072388 
	C805.304504,1001.736267 784.849182,997.711914 764.873901,990.234070 
	C734.894653,979.011108 710.020508,960.810852 689.382629,936.654480 
	C685.624878,932.256042 683.159790,926.753174 680.388794,921.935669 
	C692.105896,932.285889 703.532166,942.460693 715.017700,953.010010 
	C718.363281,956.576843 721.297058,960.268066 724.993591,962.879639 
	C747.707703,978.926575 772.691223,989.255920 800.391602,993.268066 
	C817.953125,995.811646 835.258484,996.164917 852.800720,993.188416 
	C887.452148,987.309021 917.634888,972.468201 942.969666,948.322693 
	C958.834167,933.202881 971.785034,915.675598 980.341614,895.268738 
	C990.325134,871.458740 996.654480,847.012329 995.214844,820.768433 
	C994.484192,807.448792 993.106384,794.343811 989.584167,781.547363 
	C982.890381,757.228333 971.991394,734.980286 955.626465,715.611633 
	C955.182556,715.086304 953.793640,715.359375 952.554504,715.078125 
	C945.505798,706.939209 938.748047,698.982239 931.844116,690.724976 
	C927.675659,686.668213 923.653381,682.911804 920.025879,679.135376 
	C922.427917,679.842590 924.711487,680.176147 926.398682,681.359741 
	C939.517578,690.563049 951.322815,701.389771 960.840515,714.175110 
	C969.519348,725.833496 977.704224,738.119568 984.157654,751.098206 
	C990.094543,763.037903 994.650269,775.994995 997.577942,789.007080 
	C1000.502380,802.004761 1000.626038,815.629456 1002.050232,828.971497 
	C1002.242065,830.769104 1002.724609,832.566895 1003.308777,834.284241 
	C1004.277832,837.133850 1006.083069,837.551575 1008.104614,835.330811 
	C1013.307922,829.614746 1020.328979,825.351685 1022.558716,817.207764 
	C1022.802917,816.315918 1024.159424,815.728516 1025.000000,815.000000 
	C1025.000000,823.354248 1025.000000,831.708496 1025.000000,840.531372 
z"/>
<path fill="#6C7781" opacity="1.000000" stroke="none" 
	d="
M1025.000000,814.531311 
	C1024.159424,815.728516 1022.802917,816.315918 1022.558716,817.207764 
	C1020.328979,825.351685 1013.307922,829.614746 1008.104614,835.330811 
	C1006.083069,837.551575 1004.277832,837.133850 1003.308777,834.284241 
	C1002.724609,832.566895 1002.242065,830.769104 1002.050232,828.971497 
	C1000.626038,815.629456 1000.502380,802.004761 997.577942,789.007080 
	C994.650269,775.994995 990.094543,763.037903 984.157654,751.098206 
	C977.704224,738.119568 969.519348,725.833496 960.840515,714.175110 
	C951.322815,701.389771 939.517578,690.563049 926.398682,681.359741 
	C924.711487,680.176147 922.427917,679.842590 919.715698,679.033447 
	C907.129639,669.995178 895.043579,661.378296 880.876099,655.814087 
	C880.755493,655.617493 880.562012,655.198730 880.901306,655.057373 
	C882.357483,654.887024 883.590393,654.529968 884.573853,654.878052 
	C900.592041,660.546814 915.610596,668.228760 929.499634,677.998230 
	C939.830383,685.264709 949.813965,692.923279 957.704224,703.054199 
	C964.292908,711.513916 972.329590,718.958374 978.136047,727.885864 
	C985.079712,738.562073 990.359009,750.323975 996.307678,761.642700 
	C999.056458,766.872925 999.365295,766.906677 1003.611511,762.924377 
	C1007.939819,758.865051 1012.416077,754.963440 1016.827515,750.992737 
	C1018.948730,761.393250 1021.061707,771.795471 1023.222534,782.187744 
	C1023.305298,782.585999 1023.849060,782.888367 1024.588989,783.117676 
	C1025.000000,793.354248 1025.000000,803.708435 1025.000000,814.531311 
z"/>
<path fill="#6C7781" opacity="1.000000" stroke="none" 
	d="
M680.097961,921.760193 
	C683.159790,926.753174 685.624878,932.256042 689.382629,936.654480 
	C710.020508,960.810852 734.894653,979.011108 764.873901,990.234070 
	C784.849182,997.711914 805.304504,1001.736267 826.581482,1002.072388 
	C829.591309,1002.119934 832.586243,1003.107056 836.759888,1003.874878 
	C829.869751,1012.339661 823.062500,1018.889771 815.089966,1024.671753 
	C804.645752,1025.000000 794.291565,1025.000000 783.468628,1025.000000 
	C782.688049,1024.377563 782.473938,1023.290161 782.049805,1023.200928 
	C771.508118,1020.982605 760.944214,1018.869812 750.336914,1016.123718 
	C754.270813,1011.761108 758.310547,1008.072876 762.218323,1004.249756 
	C766.939575,999.630737 766.818420,998.919800 760.866455,995.949646 
	C747.384094,989.221680 733.775696,982.901306 721.626282,973.626953 
	C707.587585,962.910461 694.680908,951.269348 683.737366,937.366394 
	C671.610596,921.960205 662.440796,904.971863 655.521362,886.719543 
	C654.825684,884.884338 655.271484,882.616516 655.426208,880.826416 
	C661.492920,891.374451 667.236328,901.694824 673.195923,911.888916 
	C675.215637,915.343567 677.781616,918.478943 680.097961,921.760193 
z"/>
<path fill="#C5753F" opacity="1.000000" stroke="none" 
	d="
M171.166550,294.990723 
	C171.112610,268.850250 171.036209,242.709778 171.010742,216.569275 
	C170.982346,187.428467 170.834106,158.286362 171.056641,129.147247 
	C171.204300,109.812164 182.870743,93.717888 201.613571,87.849068 
	C204.692856,86.884857 207.982635,86.078918 211.176865,86.072578 
	C261.798309,85.972069 312.420044,86.014168 363.475433,86.554092 
	C363.940033,95.056602 363.970917,103.028641 363.945618,111.465820 
	C363.857483,117.605263 363.825562,123.279556 363.345428,128.968430 
	C321.739990,128.987930 280.582764,128.991653 239.425522,128.998337 
	C222.444031,129.001099 214.244263,137.144592 214.242065,154.050140 
	C214.236786,194.707535 214.251144,235.364914 214.241150,276.022308 
	C214.240662,278.014893 214.083847,280.007446 213.585999,282.000793 
	C211.236099,282.348572 209.229446,282.477570 207.375427,283.077881 
	C195.287338,286.991821 183.232361,291.007996 171.166550,294.990723 
z"/>
<path fill="#C1713B" opacity="1.000000" stroke="none" 
	d="
M662.063416,86.142914 
	C685.865723,86.093208 709.667969,86.022003 733.470276,85.999573 
	C759.606445,85.974937 785.748840,86.346542 811.876770,85.882828 
	C832.140442,85.523193 852.553467,102.675232 854.030823,122.423286 
	C854.312561,126.189003 854.951904,129.948380 854.956726,133.711273 
	C855.010437,175.828568 854.972046,217.945999 854.582520,260.629974 
	C851.473511,262.958954 848.935852,265.225555 845.965820,266.376068 
	C840.239319,268.594452 834.308594,270.324890 828.387207,271.989410 
	C822.976196,273.510468 817.465698,274.677155 811.900818,275.540039 
	C811.787292,234.590347 811.780518,194.100647 811.752563,153.610947 
	C811.741333,137.372681 803.350891,129.011124 787.121216,128.998276 
	C745.465454,128.965286 703.809753,128.932495 662.161926,128.579910 
	C662.115356,127.839897 662.060852,127.419586 662.080994,126.535736 
	C662.106262,119.714310 662.056824,113.356422 662.078552,106.534775 
	C662.101624,100.046829 662.053528,94.022652 662.037720,87.744568 
	C662.027771,87.325333 661.985535,87.160004 661.991577,86.784317 
	C662.039917,86.573959 662.063416,86.142914 662.063416,86.142914 
z"/>
<path fill="#BA6B34" opacity="1.000000" stroke="none" 
	d="
M811.999023,276.000000 
	C817.465698,274.677155 822.976196,273.510468 828.387207,271.989410 
	C834.308594,270.324890 840.239319,268.594452 845.965820,266.376068 
	C848.935852,265.225555 851.473511,262.958954 854.520264,261.094452 
	C854.892212,261.820770 855.001343,262.649170 855.001282,263.477600 
	C854.988647,363.337677 854.968018,463.197723 854.489746,563.498657 
	C840.163818,560.827087 826.079651,560.794617 811.878052,560.529114 
	C811.775696,466.373322 811.774292,372.675873 811.783691,278.978455 
	C811.783813,277.985626 811.924133,276.992828 811.999023,276.000000 
z"/>
<path fill="#BF7039" opacity="1.000000" stroke="none" 
	d="
M171.095520,295.455292 
	C183.232361,291.007996 195.287338,286.991821 207.375427,283.077881 
	C209.229446,282.477570 211.236099,282.348572 213.672394,282.462769 
	C214.199463,370.958099 214.227158,458.992249 214.242630,547.026428 
	C214.242798,548.017639 214.084137,549.008789 213.629089,550.064941 
	C199.227966,554.416382 185.197372,558.702820 171.166779,562.989258 
	C171.115494,562.160095 171.019333,561.330933 171.019302,560.501831 
	C171.016373,472.307831 171.020630,384.113861 171.095520,295.455292 
z"/>
<path fill="#B0622B" opacity="1.000000" stroke="none" 
	d="
M599.981750,939.843628 
	C599.151733,939.890381 598.321777,939.977966 597.491760,939.977966 
	C485.969818,939.978455 374.447845,939.972534 262.586304,939.576538 
	C263.537781,938.516357 264.763184,937.639160 266.129425,937.206848 
	C305.406586,924.777588 344.702606,912.407959 383.963989,899.929260 
	C385.149872,899.552429 385.997681,898.112061 387.467957,897.105103 
	C437.982819,897.028503 488.032898,897.025146 538.082947,896.992737 
	C551.382751,896.984131 564.682556,896.886292 578.382812,896.896423 
	C579.862793,897.032532 580.942383,897.101624 582.023071,897.554932 
	C582.186829,898.918213 582.137207,899.997559 582.544373,900.861450 
	C587.719971,911.843750 593.003784,922.775208 598.145142,933.773254 
	C599.031189,935.668701 599.383118,937.813843 599.981750,939.843628 
z"/>
<path fill="#B86932" opacity="1.000000" stroke="none" 
	d="
M171.096497,563.453979 
	C185.197372,558.702820 199.227966,554.416382 213.717224,550.526611 
	C214.225235,595.275146 214.274567,639.627075 214.206558,684.435913 
	C214.062042,691.038208 214.022034,697.183594 214.009872,703.328979 
	C213.948761,734.222351 213.894928,765.115723 213.454193,796.030029 
	C206.896790,797.920349 200.748611,799.877563 194.544373,801.637085 
	C186.775772,803.840332 178.961136,805.881226 171.166382,807.992188 
	C171.114700,807.163208 171.017792,806.334167 171.017776,805.505188 
	C171.015839,724.976379 171.021255,644.447571 171.096497,563.453979 
z"/>
<path fill="#B3652E" opacity="1.000000" stroke="none" 
	d="
M171.097809,808.456909 
	C178.961136,805.881226 186.775772,803.840332 194.544373,801.637085 
	C200.748611,799.877563 206.896790,797.920349 213.513626,796.494629 
	C213.970734,802.093262 213.878174,807.251099 214.019882,812.402405 
	C214.297974,822.511353 214.706482,832.616760 214.836823,843.177979 
	C214.571213,849.768555 214.529831,855.904907 214.401245,862.471680 
	C214.375534,864.950134 214.437042,866.997986 214.411407,869.473999 
	C212.623779,888.042297 224.142029,897.723328 240.325806,897.193054 
	C263.253204,896.441833 286.223572,896.978943 309.175507,897.005859 
	C335.118073,897.036316 361.060577,897.111694 387.003113,897.167542 
	C385.997681,898.112061 385.149872,899.552429 383.963989,899.929260 
	C344.702606,912.407959 305.406586,924.777588 266.129425,937.206848 
	C264.763184,937.639160 263.537781,938.516357 262.123535,939.510010 
	C244.707672,939.887451 227.386887,940.579407 210.129837,939.821106 
	C191.637863,939.008667 173.979568,923.312683 172.147293,904.510071 
	C170.994354,892.678711 171.130096,880.703918 171.039688,868.790771 
	C170.888229,848.835571 171.017883,828.878174 171.097809,808.456909 
z"/>
<path fill="#778188" opacity="1.000000" stroke="none" 
	d="
M674.902832,976.047729 
	C662.110535,965.679199 650.790588,953.907410 640.842529,939.960815 
	C636.656189,933.244690 632.728943,927.148987 629.193054,921.038818 
	C637.927307,918.025635 645.809448,909.844666 642.215149,900.894958 
	C635.692383,884.653625 631.837463,867.681702 629.260803,850.368958 
	C626.973755,835.002258 626.657227,819.545959 628.387207,804.249695 
	C630.804382,782.876709 636.417847,762.270874 645.503296,742.553589 
	C658.417908,714.526184 676.624268,690.683167 700.543823,671.422180 
	C727.184753,649.969727 757.479004,636.215210 791.341797,630.314087 
	C808.479919,627.327576 825.713562,626.522339 842.858887,628.279358 
	C862.354736,630.277283 881.513977,634.531860 899.884033,641.763367 
	C905.559082,643.997314 910.632324,643.764465 915.177734,638.562073 
	C918.010559,635.319824 920.721375,632.378418 921.121704,627.935974 
	C939.201111,638.679993 955.290161,651.890503 969.670410,667.202637 
	C971.803528,669.473938 973.739624,671.930237 975.731445,674.913208 
	C975.222290,676.393127 974.147766,677.473694 974.368042,678.095764 
	C976.532227,684.207397 971.605835,686.706787 968.388977,689.990173 
	C967.620605,690.774414 965.801575,691.544189 965.056030,691.163818 
	C961.405640,689.301514 957.627258,687.446228 954.490112,684.864258 
	C941.123840,673.863708 927.254761,663.602173 911.694092,655.930237 
	C896.003906,648.194397 879.512451,642.656189 862.364136,639.036316 
	C842.212158,634.782227 821.791687,633.205261 801.537598,636.437866 
	C786.393188,638.854980 771.635315,643.751343 756.770020,647.782715 
	C755.016663,648.258179 753.673462,650.246155 751.856445,651.715576 
	C747.717651,653.626770 743.862549,655.355347 739.649414,657.110779 
	C724.129700,664.308594 710.151917,673.251343 697.602295,684.937378 
	C682.770142,698.305664 670.568054,713.340820 661.331116,731.108643 
	C657.942932,738.238831 654.774170,745.122986 651.265015,752.045044 
	C649.220276,755.524719 647.271912,758.869080 645.852722,762.424683 
	C638.687683,780.376221 635.434143,799.227661 635.221130,818.384216 
	C635.076172,831.426086 636.215210,844.616943 638.223328,857.516541 
	C641.305725,877.316711 647.908386,896.193726 657.119751,914.011108 
	C665.084778,929.417542 675.388733,943.249023 686.603088,956.485168 
	C688.996155,959.309692 690.943359,964.645935 689.884338,967.717712 
	C688.578613,971.505127 684.934570,975.711609 679.023987,974.522705 
	C677.802002,974.276855 676.284302,975.501099 674.902832,976.047729 
z"/>
<path fill="#7F8890" opacity="1.000000" stroke="none" 
	d="
M920.945923,627.626648 
	C920.721375,632.378418 918.010559,635.319824 915.177734,638.562073 
	C910.632324,643.764465 905.559082,643.997314 899.884033,641.763367 
	C881.513977,634.531860 862.354736,630.277283 842.858887,628.279358 
	C825.713562,626.522339 808.479919,627.327576 791.341797,630.314087 
	C757.479004,636.215210 727.184753,649.969727 700.543823,671.422180 
	C676.624268,690.683167 658.417908,714.526184 645.503296,742.553589 
	C636.417847,762.270874 630.804382,782.876709 628.387207,804.249695 
	C626.657227,819.545959 626.973755,835.002258 629.260803,850.368958 
	C631.837463,867.681702 635.692383,884.653625 642.215149,900.894958 
	C645.809448,909.844666 637.927307,918.025635 628.951172,920.813843 
	C624.195496,912.727356 620.073120,904.851440 615.894165,896.620728 
	C611.258240,882.187683 606.678894,868.109436 602.115479,853.588623 
	C601.867065,850.808899 601.602722,848.471741 601.683716,845.997192 
	C607.050293,841.007263 612.308533,836.368103 616.969299,831.190979 
	C618.697998,829.270752 619.784424,826.113525 619.872009,823.477417 
	C620.656677,799.856995 625.072388,777.024170 633.159851,754.790649 
	C647.904907,714.254395 673.313171,682.030518 708.307129,657.162720 
	C727.510132,643.516541 748.573364,633.462524 771.398560,627.959290 
	C786.978943,624.202759 803.012451,622.026367 818.967285,620.267029 
	C825.503601,619.546265 830.918518,618.420837 835.247620,613.322754 
	C837.504944,610.664368 840.290283,608.456360 842.573364,605.816833 
	C843.690796,604.524963 844.205566,602.711914 845.404419,601.119019 
	C848.897034,601.374573 851.978333,601.645935 855.059631,601.917236 
	C860.221619,603.280823 865.422791,604.512268 870.538269,606.032410 
	C886.650818,610.820801 902.248108,616.868042 916.815857,625.371765 
	C918.081360,626.110413 919.449646,626.672974 920.945923,627.626648 
z"/>
<path fill="#A8B0BA" opacity="1.000000" stroke="none" 
	d="
M661.589844,86.091713 
	C662.063416,86.142914 662.039917,86.573959 661.527832,86.788208 
	C634.100586,87.005661 607.185364,86.994827 580.270264,87.039001 
	C578.136597,87.042503 575.942993,87.176720 573.880066,87.675583 
	C559.862976,91.065338 545.873535,94.569359 531.559570,97.905060 
	C524.588501,86.651947 513.064758,84.975456 504.816956,88.637642 
	C495.450134,92.796700 490.519409,102.705330 492.420898,113.004517 
	C490.355499,113.161842 488.663177,113.129730 487.069427,113.510315 
	C460.740936,119.797714 434.426544,126.144180 408.105286,132.461868 
	C393.414490,135.988007 378.716827,139.485611 363.982452,142.532669 
	C363.892944,137.697449 363.843262,133.325653 363.793579,128.953842 
	C363.825562,123.279556 363.857483,117.605263 364.354614,111.460541 
	C372.756134,109.194946 380.714813,107.492790 388.625092,105.589386 
	C435.811829,94.235100 482.975006,82.782677 530.176514,71.490242 
	C540.331482,69.060776 550.611328,67.152794 560.833618,65.004593 
	C565.436218,71.738640 570.038757,78.472687 575.211182,86.040512 
	C602.844971,86.040512 631.980591,86.040512 661.589844,86.091713 
z"/>
<path fill="#A5ADB6" opacity="1.000000" stroke="none" 
	d="
M560.817871,64.669632 
	C550.611328,67.152794 540.331482,69.060776 530.176514,71.490242 
	C482.975006,82.782677 435.811829,94.235100 388.625092,105.589386 
	C380.714813,107.492790 372.756134,109.194946 364.410828,110.995384 
	C363.970917,103.028641 363.940033,95.056602 363.936646,86.627914 
	C393.419617,86.171265 422.875122,86.171265 452.204926,86.171265 
	C469.351807,39.723713 527.797607,28.473835 560.817871,64.669632 
z"/>
<path fill="#727D86" opacity="1.000000" stroke="none" 
	d="
M752.140137,651.532959 
	C753.673462,650.246155 755.016663,648.258179 756.770020,647.782715 
	C771.635315,643.751343 786.393188,638.854980 801.537598,636.437866 
	C821.791687,633.205261 842.212158,634.782227 862.364136,639.036316 
	C879.512451,642.656189 896.003906,648.194397 911.694092,655.930237 
	C927.254761,663.602173 941.123840,673.863708 954.490112,684.864258 
	C957.627258,687.446228 961.405640,689.301514 965.056030,691.163818 
	C965.801575,691.544189 967.620605,690.774414 968.388977,689.990173 
	C971.605835,686.706787 976.532227,684.207397 974.368042,678.095764 
	C974.147766,677.473694 975.222290,676.393127 975.872925,675.215027 
	C988.776367,690.184326 999.546875,706.685181 1007.050293,725.170410 
	C1010.419983,733.471802 1013.479004,741.899231 1016.753296,750.631104 
	C1012.416077,754.963440 1007.939819,758.865051 1003.611511,762.924377 
	C999.365295,766.906677 999.056458,766.872925 996.307678,761.642700 
	C990.359009,750.323975 985.079712,738.562073 978.136047,727.885864 
	C972.329590,718.958374 964.292908,711.513916 957.704224,703.054199 
	C949.813965,692.923279 939.830383,685.264709 929.499634,677.998230 
	C915.610596,668.228760 900.592041,660.546814 884.573853,654.878052 
	C883.590393,654.529968 882.357483,654.887024 880.530212,655.022461 
	C876.116577,653.859558 872.396179,652.637634 868.712830,651.312744 
	C848.014465,643.867554 826.705322,640.177429 804.691284,641.115540 
	C786.654236,641.884033 769.146301,645.483093 752.140137,651.532959 
z"/>
<path fill="#727D86" opacity="1.000000" stroke="none" 
	d="
M675.055786,976.356812 
	C676.284302,975.501099 677.802002,974.276855 679.023987,974.522705 
	C684.934570,975.711609 688.578613,971.505127 689.884338,967.717712 
	C690.943359,964.645935 688.996155,959.309692 686.603088,956.485168 
	C675.388733,943.249023 665.084778,929.417542 657.119751,914.011108 
	C647.908386,896.193726 641.305725,877.316711 638.223328,857.516541 
	C636.215210,844.616943 635.076172,831.426086 635.221130,818.384216 
	C635.434143,799.227661 638.687683,780.376221 645.852722,762.424683 
	C647.271912,758.869080 649.220276,755.524719 651.157593,752.377808 
	C648.772827,762.768433 646.155029,772.864197 643.392395,783.364746 
	C642.549866,789.952881 641.552124,796.119568 641.210022,802.322449 
	C640.105713,822.346313 642.068848,842.026733 648.629639,861.510071 
	C650.851501,868.118713 653.019470,874.334045 655.187500,880.549438 
	C655.271484,882.616516 654.825684,884.884338 655.521362,886.719543 
	C662.440796,904.971863 671.610596,921.960205 683.737366,937.366394 
	C694.680908,951.269348 707.587585,962.910461 721.626282,973.626953 
	C733.775696,982.901306 747.384094,989.221680 760.866455,995.949646 
	C766.818420,998.919800 766.939575,999.630737 762.218323,1004.249756 
	C758.310547,1008.072876 754.270813,1011.761108 750.120728,1015.807922 
	C734.653015,1012.232422 720.236755,1006.036560 706.758179,998.024353 
	C695.860413,991.546265 685.697571,983.831787 675.055786,976.356812 
z"/>
<path fill="#9D5A2A" opacity="1.000000" stroke="none" 
	d="
M615.950806,896.975464 
	C620.073120,904.851440 624.195496,912.727356 628.559814,920.828247 
	C632.728943,927.148987 636.656189,933.244690 640.679199,939.647034 
	C627.487305,939.964172 614.199707,939.974792 600.446899,939.914490 
	C599.383118,937.813843 599.031189,935.668701 598.145142,933.773254 
	C593.003784,922.775208 587.719971,911.843750 582.544373,900.861450 
	C582.137207,899.997559 582.186829,898.918213 582.455017,897.495850 
	C584.921326,896.981323 586.956726,896.910034 589.455261,896.905029 
	C594.943787,896.920410 599.969116,896.869507 605.447266,896.884644 
	C609.250305,896.958984 612.600586,896.967224 615.950806,896.975464 
z"/>
<path fill="#B0622B" opacity="1.000000" stroke="none" 
	d="
M811.979675,560.987488 
	C826.079651,560.794617 840.163818,560.827087 854.429199,563.962891 
	C854.862915,570.673279 854.899231,577.360229 854.512390,584.439453 
	C851.703308,584.216919 849.343933,583.220093 846.926941,583.052002 
	C835.288391,582.242737 823.634277,581.656982 811.891174,580.553528 
	C811.691711,577.728638 811.586792,575.342163 811.575928,572.504883 
	C811.618347,568.326721 811.566650,564.599304 811.632080,560.897278 
	C811.749084,560.922668 811.979675,560.987488 811.979675,560.987488 
z"/>
<path fill="#9D5A2A" opacity="1.000000" stroke="none" 
	d="
M811.985718,580.991882 
	C823.634277,581.656982 835.288391,582.242737 846.926941,583.052002 
	C849.343933,583.220093 851.703308,584.216919 854.456543,584.903442 
	C854.883972,590.315308 854.944092,595.655640 855.031982,601.456543 
	C851.978333,601.645935 848.897034,601.374573 844.998108,601.032227 
	C833.365112,599.962769 822.549683,598.964294 811.741943,597.534851 
	C811.659424,595.383484 811.569275,593.663025 811.567871,591.499146 
	C811.604736,588.027771 811.552856,584.999878 811.622559,581.727173 
	C811.824585,581.318787 811.905151,581.155334 811.985718,580.991882 
z"/>
<path fill="#D3D6DA" opacity="1.000000" stroke="none" 
	d="
M655.426208,880.826416 
	C653.019470,874.334045 650.851501,868.118713 649.012512,861.529907 
	C654.116028,864.144104 658.962769,867.022888 663.652527,870.138062 
	C685.137939,884.409546 708.308350,895.038879 732.967957,902.509949 
	C751.946533,908.259766 771.240417,912.444214 791.111572,912.945190 
	C806.346924,913.329346 821.613770,913.298706 836.840332,912.738342 
	C842.116089,912.544189 847.312927,910.202576 852.756409,909.091431 
	C856.252563,915.691895 859.458374,922.085754 862.849915,928.379578 
	C865.387085,933.087708 870.024841,934.629883 874.112122,932.378784 
	C878.084473,930.190979 879.227112,925.894592 877.017822,921.110535 
	C875.349976,917.499023 873.577942,913.935608 872.117554,910.067993 
	C873.626404,909.345398 874.842896,908.795044 876.117615,908.481995 
	C904.460571,901.522217 930.753967,889.814026 955.449219,874.367859 
	C961.608887,870.515137 967.851929,866.795776 974.045349,863.399780 
	C945.094666,954.405457 847.470093,1003.342346 757.909424,973.617615 
	C742.622986,968.544067 728.595093,961.021240 714.958435,952.635437 
	C703.532166,942.460693 692.105896,932.285889 680.388794,921.935669 
	C677.781616,918.478943 675.215637,915.343567 673.195923,911.888916 
	C667.236328,901.694824 661.492920,891.374451 655.426208,880.826416 
z"/>
<path fill="#EDEEF0" opacity="1.000000" stroke="none" 
	d="
M697.908203,684.789307 
	C710.151917,673.251343 724.129700,664.308594 739.647888,657.532959 
	C740.206787,659.736511 740.166809,661.612427 740.650024,663.342224 
	C744.542175,677.276978 751.591675,689.286743 762.464966,698.984436 
	C779.168335,713.881836 798.799622,719.188110 820.698120,716.527649 
	C839.051270,714.297852 854.052307,705.462463 865.866882,691.496399 
	C874.474121,681.321533 880.807922,669.905884 880.996643,656.010742 
	C895.043579,661.378296 907.129639,669.995178 919.320984,679.053467 
	C923.653381,682.911804 927.675659,686.668213 931.780396,691.080933 
	C926.528381,701.568115 921.260864,711.436401 915.806091,721.199951 
	C914.645325,723.277588 913.135803,725.689941 909.946411,723.568787 
	C910.063477,716.726624 906.805542,712.433228 901.782898,713.310730 
	C899.253418,713.752686 896.640564,715.554382 894.731873,717.422180 
	C879.318054,732.504883 864.062805,747.749695 848.445068,762.788940 
	C845.712463,762.934875 843.220459,762.961365 840.887207,763.583191 
	C825.049683,767.804138 808.952332,768.360535 792.896423,765.978577 
	C755.687744,760.458496 726.942566,741.397583 706.707275,709.833740 
	C701.919434,702.365601 695.490601,694.996826 697.908203,684.789307 
z"/>
<path fill="#E5E7EA" opacity="1.000000" stroke="none" 
	d="
M909.941895,723.984924 
	C913.135803,725.689941 914.645325,723.277588 915.806091,721.199951 
	C921.260864,711.436401 926.528381,701.568115 931.926514,691.381287 
	C938.748047,698.982239 945.505798,706.939209 952.604858,715.417542 
	C956.308533,721.938904 959.670898,727.938843 962.862976,734.235901 
	C955.430786,744.219421 948.781311,754.448486 940.779480,763.479187 
	C924.146729,782.250977 904.006104,796.561157 880.932312,806.457520 
	C865.319641,813.153809 849.301331,818.658691 832.011475,818.585449 
	C831.993164,812.778198 831.975281,807.385376 832.284546,801.905396 
	C857.107056,777.385620 881.608093,752.958740 906.082581,728.505310 
	C907.479736,727.109375 908.660400,725.496704 909.941895,723.984924 
z"/>
<path fill="#65707A" opacity="1.000000" stroke="none" 
	d="
M963.033264,733.938782 
	C959.670898,727.938843 956.308533,721.938904 952.895752,715.599548 
	C953.793640,715.359375 955.182556,715.086304 955.626465,715.611633 
	C971.991394,734.980286 982.890381,757.228333 989.584167,781.547363 
	C993.106384,794.343811 994.484192,807.448792 995.214844,820.768433 
	C996.654480,847.012329 990.325134,871.458740 980.341614,895.268738 
	C971.785034,915.675598 958.834167,933.202881 942.969666,948.322693 
	C917.634888,972.468201 887.452148,987.309021 852.800720,993.188416 
	C835.258484,996.164917 817.953125,995.811646 800.391602,993.268066 
	C772.691223,989.255920 747.707703,978.926575 724.993591,962.879639 
	C721.297058,960.268066 718.363281,956.576843 715.017700,953.010010 
	C728.595093,961.021240 742.622986,968.544067 757.909424,973.617615 
	C847.470093,1003.342346 945.094666,954.405457 974.273926,863.113159 
	C982.656555,836.380005 984.119446,809.878845 979.725586,782.610962 
	C979.131165,779.863098 978.597595,777.484741 977.961365,775.134155 
	C974.132324,760.987671 970.912964,746.617981 963.033264,733.938782 
z"/>
<path fill="#F4F4F6" opacity="1.000000" stroke="none" 
	d="
M880.876099,655.814087 
	C880.807922,669.905884 874.474121,681.321533 865.866882,691.496399 
	C854.052307,705.462463 839.051270,714.297852 820.698120,716.527649 
	C798.799622,719.188110 779.168335,713.881836 762.464966,698.984436 
	C751.591675,689.286743 744.542175,677.276978 740.650024,663.342224 
	C740.166809,661.612427 740.206787,659.736511 740.005981,657.506104 
	C743.862549,655.355347 747.717651,653.626770 751.856445,651.715576 
	C769.146301,645.483093 786.654236,641.884033 804.691284,641.115540 
	C826.705322,640.177429 848.014465,643.867554 868.712830,651.312744 
	C872.396179,652.637634 876.116577,653.859558 880.190918,655.163879 
	C880.562012,655.198730 880.755493,655.617493 880.876099,655.814087 
z"/>
<path fill="#F3F3F3" opacity="1.000000" stroke="none" 
	d="
M363.345398,128.968430 
	C363.843262,133.325653 363.892944,137.697449 363.932739,142.998611 
	C363.949249,149.285309 363.975647,154.642654 363.962524,160.465912 
	C364.217773,166.306076 364.512512,171.680344 364.838165,177.427155 
	C366.469574,180.622284 367.685638,183.769302 369.742645,186.206589 
	C375.918091,193.523621 384.498962,193.222351 393.464264,192.913101 
	C427.618347,192.932602 461.305573,192.906815 495.460388,192.922546 
	C508.901825,192.977051 521.875732,193.001053 534.849609,193.000885 
	C569.613586,193.000427 604.377563,193.004578 639.141541,192.975784 
	C653.567017,192.963837 662.007202,184.463043 662.052002,169.960327 
	C662.071533,163.640335 662.019531,157.320114 662.021301,150.531784 
	C662.079651,143.008926 662.116821,135.954269 662.153992,128.899628 
	C703.809753,128.932495 745.465454,128.965286 787.121216,128.998276 
	C803.350891,129.011124 811.741333,137.372681 811.752563,153.610947 
	C811.780518,194.100647 811.787292,234.590347 811.900818,275.540039 
	C811.924133,276.992828 811.783813,277.985626 811.783691,278.978455 
	C811.774292,372.675873 811.775696,466.373322 811.878052,560.529114 
	C811.979675,560.987488 811.749084,560.922668 811.207886,560.926086 
	C806.871521,561.275146 803.081055,561.849976 799.280334,561.927490 
	C780.888977,562.302490 762.992798,565.700317 745.380920,570.716125 
	C711.185120,580.455017 680.276978,596.462769 653.007812,619.400696 
	C649.287537,622.530151 645.123962,625.132568 641.111084,627.514771 
	C641.036377,621.217346 641.112610,615.381775 640.970398,609.551636 
	C640.811829,603.054321 636.990723,598.994995 630.552368,598.318176 
	C628.901855,598.144714 627.222717,598.222412 625.556702,598.222351 
	C521.890442,598.218689 418.224182,598.218933 314.557922,598.220642 
	C313.224823,598.220642 311.885284,598.164795 310.559753,598.271667 
	C303.818695,598.815002 299.963287,602.817078 299.810883,609.622009 
	C299.687744,615.119263 299.769958,620.621338 299.774261,626.121277 
	C299.783478,637.902039 302.846741,641.001892 314.487610,641.002075 
	C415.487213,641.003601 516.486816,641.001282 617.486450,641.009766 
	C620.984131,641.010071 624.481812,641.111023 627.966919,641.517090 
	C627.475769,642.897339 627.172668,644.063171 626.491394,644.932678 
	C620.051819,653.150757 613.277039,661.123169 607.177307,669.583435 
	C604.155151,673.775208 602.340881,678.837769 599.518921,683.585083 
	C596.225159,683.700500 593.392761,683.769348 590.560303,683.769531 
	C499.067688,683.776123 407.575104,683.775818 316.082489,683.777832 
	C314.249420,683.777893 312.413513,683.730896 310.583801,683.813416 
	C303.910950,684.114319 300.008545,687.834167 299.847961,694.447693 
	C299.674133,701.609009 299.659332,708.782898 299.875763,715.942200 
	C300.059875,722.031860 303.924072,725.753845 309.984436,726.153198 
	C311.810547,726.273499 313.649078,726.220947 315.481934,726.221008 
	C399.641815,726.223633 483.801666,726.220581 567.961548,726.234497 
	C570.955627,726.234985 573.949646,726.399841 576.946655,726.855957 
	C576.151794,730.098206 575.427124,732.995178 574.544617,735.843201 
	C567.373047,758.986328 562.726929,782.606140 563.142456,806.884644 
	C563.411682,822.620056 565.028870,838.332458 566.078369,854.129456 
	C566.114563,854.203735 566.147522,854.365784 565.677612,854.276062 
	C563.544373,854.144958 561.881042,854.067444 560.217773,854.067383 
	C452.994080,854.063416 345.770264,853.989868 238.546951,854.189087 
	C228.235886,854.208191 220.903198,850.578186 216.079178,841.191895 
	C215.696259,837.344055 215.046219,833.892395 215.041351,830.439880 
	C214.975388,783.740234 215.007950,737.040344 214.971924,690.340576 
	C214.970291,688.219910 214.549484,686.099487 214.323914,683.978943 
	C214.274567,639.627075 214.225235,595.275146 214.087753,550.461670 
	C214.084137,549.008789 214.242798,548.017639 214.242630,547.026428 
	C214.227158,458.992249 214.199463,370.958099 214.086212,282.461975 
	C214.083847,280.007446 214.240662,278.014893 214.241150,276.022308 
	C214.251144,235.364914 214.236786,194.707535 214.242065,154.050140 
	C214.244263,137.144592 222.444031,129.001099 239.425522,128.998337 
	C280.582764,128.991653 321.739990,128.987930 363.345398,128.968430 
M456.500000,555.780884 
	C540.991760,555.780884 625.483582,555.781067 709.975342,555.780457 
	C711.641846,555.780457 713.313049,555.850525 714.973999,555.751770 
	C722.050903,555.331238 726.022766,551.351318 726.187317,544.332764 
	C726.316162,538.836243 726.230225,533.334534 726.225586,527.835083 
	C726.215637,516.079834 723.155640,512.998047 711.487305,512.997925 
	C579.166992,512.996704 446.846649,512.997070 314.526306,512.997803 
	C313.193176,512.997864 311.857147,512.954834 310.527374,513.024719 
	C304.058105,513.364807 300.035309,517.327393 299.827698,523.831177 
	C299.662964,528.992188 299.774170,534.162354 299.773590,539.328430 
	C299.772064,553.136353 302.383636,555.780640 316.013702,555.780762 
	C362.509125,555.781189 409.004578,555.780701 456.500000,555.780884 
M301.886139,346.630554 
	C301.183960,349.139252 300.025421,351.620819 299.874481,354.162262 
	C299.558990,359.474823 299.769043,364.818939 299.773926,370.150116 
	C299.784668,381.895416 302.863739,385.002075 314.506439,385.002167 
	C446.785980,385.003510 579.065552,385.003021 711.345093,385.002777 
	C712.511292,385.002777 713.678467,385.030090 714.843506,384.992310 
	C721.944092,384.761963 726.003113,380.844482 726.183289,373.802490 
	C726.323975,368.308228 726.228882,362.807739 726.226074,357.309998 
	C726.219788,345.325958 723.117981,342.220520 711.134644,342.220184 
	C632.999695,342.217865 554.864807,342.218933 476.729889,342.218964 
	C422.418640,342.218994 368.107056,342.142883 313.796875,342.382385 
	C309.981628,342.399200 306.176727,344.749054 301.886139,346.630554 
M387.500000,427.776581 
	C362.344055,427.777466 337.188080,427.743835 312.032227,427.798462 
	C303.531647,427.816895 299.876282,431.518158 299.794159,439.990112 
	C299.731201,446.486542 299.786896,452.984222 299.808624,459.481323 
	C299.824860,464.343323 302.070740,467.941223 306.617737,469.484467 
	C309.052277,470.310730 311.868103,470.196075 314.511932,470.196869 
	C418.301331,470.227783 522.090698,470.223114 625.880127,470.222870 
	C626.713135,470.222870 627.546204,470.228821 628.379089,470.218231 
	C637.080322,470.107422 640.916931,466.336792 640.991028,457.752106 
	C641.034180,452.754578 641.001282,447.756409 640.999634,442.758514 
	C640.995667,430.756500 638.003479,427.778992 625.899536,427.778503 
	C546.766357,427.775269 467.633179,427.776550 387.500000,427.776581 
z"/>
<path fill="#B6BFCA" opacity="1.000000" stroke="none" 
	d="
M392.997437,192.867798 
	C384.498962,193.222351 375.918091,193.523621 369.742645,186.206589 
	C367.685638,183.769302 366.469574,180.622284 365.276367,177.411804 
	C367.644684,176.709900 369.635468,176.521072 371.562317,176.063248 
	C401.631165,168.918777 431.703430,161.787918 461.751801,154.557877 
	C517.491211,141.146210 573.206543,127.634338 628.953918,114.255966 
	C639.920654,111.624138 650.987000,109.406960 662.007385,106.998550 
	C662.056824,113.356422 662.106262,119.714310 661.660400,126.536896 
	C659.366943,127.281181 657.538879,127.436111 655.775024,127.859009 
	C628.295959,134.447144 600.830017,141.090622 573.351318,147.680435 
	C515.648560,161.518478 457.934235,175.308578 400.253021,189.235687 
	C397.691498,189.854141 395.409576,191.630692 392.997437,192.867798 
z"/>
<path fill="#BAC3CF" opacity="1.000000" stroke="none" 
	d="
M393.464264,192.913086 
	C395.409576,191.630692 397.691498,189.854141 400.253021,189.235687 
	C457.934235,175.308578 515.648560,161.518478 573.351318,147.680435 
	C600.830017,141.090622 628.295959,134.447144 655.775024,127.859009 
	C657.538879,127.436111 659.366943,127.281181 661.585693,127.000443 
	C662.060852,127.419586 662.115356,127.839897 662.161926,128.579926 
	C662.116821,135.954269 662.079651,143.008926 661.637817,150.600494 
	C640.886719,156.064514 620.546082,161.015350 600.192627,165.913300 
	C566.432129,174.037582 532.658752,182.108047 498.914978,190.300949 
	C497.483185,190.648575 496.294678,191.998199 494.992828,192.881042 
	C461.305573,192.906815 427.618347,192.932602 393.464264,192.913086 
z"/>
<path fill="#B2BBC5" opacity="1.000000" stroke="none" 
	d="
M662.078552,106.534775 
	C650.987000,109.406960 639.920654,111.624138 628.953918,114.255966 
	C573.206543,127.634338 517.491211,141.146210 461.751801,154.557877 
	C431.703430,161.787918 401.631165,168.918777 371.562317,176.063248 
	C369.635468,176.521072 367.644684,176.709900 365.245453,177.039230 
	C364.512512,171.680344 364.217773,166.306076 364.359802,160.444962 
	C397.414612,152.174149 430.043213,144.434128 462.645630,136.585373 
	C476.357086,133.284470 490.013245,129.753860 503.955322,126.541054 
	C511.164978,128.628372 518.063782,129.363266 524.337341,124.844139 
	C526.732300,123.118973 528.762085,120.886818 531.219055,119.121536 
	C534.991821,118.645927 538.531860,118.050316 542.011414,117.205399 
	C582.014709,107.491646 622.008850,97.740013 662.005432,87.998474 
	C662.053528,94.022652 662.101624,100.046829 662.078552,106.534775 
z"/>
<path fill="#AEB7C1" opacity="1.000000" stroke="none" 
	d="
M662.037720,87.744560 
	C622.008850,97.740013 582.014709,107.491646 542.011414,117.205399 
	C538.531860,118.050316 534.991821,118.645927 531.244995,118.740250 
	C534.887512,111.582138 534.330566,104.850182 531.875122,98.036469 
	C545.873535,94.569359 559.862976,91.065338 573.880066,87.675583 
	C575.942993,87.176720 578.136597,87.042503 580.270264,87.039001 
	C607.185364,86.994827 634.100586,87.005661 661.479492,86.998566 
	C661.985535,87.160004 662.027771,87.325333 662.037720,87.744560 
z"/>
<path fill="#D1D0D0" opacity="1.000000" stroke="none" 
	d="
M387.467957,897.105103 
	C361.060577,897.111694 335.118073,897.036316 309.175507,897.005859 
	C286.223572,896.978943 263.253204,896.441833 240.325806,897.193054 
	C224.142029,897.723328 212.623779,888.042297 214.845276,869.464539 
	C329.769714,869.018127 444.173157,869.007629 558.576599,869.016235 
	C560.230347,869.016357 562.177673,868.742615 563.477844,869.487366 
	C566.354309,871.134949 570.215393,872.796753 571.333923,875.442444 
	C574.226746,882.285339 575.851318,889.664490 577.982300,896.829468 
	C564.682556,896.886292 551.382751,896.984131 538.082947,896.992737 
	C488.032898,897.025146 437.982819,897.028503 387.467957,897.105103 
z"/>
<path fill="#C7C7C7" opacity="1.000000" stroke="none" 
	d="
M578.382751,896.896484 
	C575.851318,889.664490 574.226746,882.285339 571.333923,875.442444 
	C570.215393,872.796753 566.354309,871.134949 563.477844,869.487366 
	C562.177673,868.742615 560.230347,869.016357 558.576599,869.016235 
	C444.173157,869.007629 329.769714,869.018127 214.932404,869.036499 
	C214.437042,866.997986 214.375534,864.950134 214.834930,862.462524 
	C328.092987,862.015198 440.830475,862.121460 553.566833,861.822510 
	C564.742615,861.792908 572.606079,867.710876 581.196472,872.898682 
	C581.854309,873.295959 582.471252,874.098511 582.688110,874.835999 
	C584.840027,882.155334 586.903564,889.500732 588.992126,896.838745 
	C586.956726,896.910034 584.921326,896.981323 582.453979,897.111694 
	C580.942383,897.101624 579.862793,897.032532 578.382751,896.896484 
z"/>
<path fill="#D1CCC8" opacity="1.000000" stroke="none" 
	d="
M214.206558,684.435913 
	C214.549484,686.099487 214.970291,688.219910 214.971924,690.340576 
	C215.007950,737.040344 214.975388,783.740234 215.041351,830.439880 
	C215.046219,833.892395 215.696259,837.344055 215.990143,841.380493 
	C215.642960,842.217834 215.351974,842.470703 215.061005,842.723633 
	C214.706482,832.616760 214.297974,822.511353 214.019882,812.402405 
	C213.878174,807.251099 213.970734,802.093262 213.897980,796.473755 
	C213.894928,765.115723 213.948761,734.222351 214.009872,703.328979 
	C214.022034,697.183594 214.062042,691.038208 214.206558,684.435913 
z"/>
<path fill="#BFBFBF" opacity="1.000000" stroke="none" 
	d="
M214.836792,843.177917 
	C215.351974,842.470703 215.642960,842.217834 216.022980,841.776367 
	C220.903198,850.578186 228.235886,854.208191 238.546951,854.189087 
	C345.770264,853.989868 452.994080,854.063416 560.217773,854.067383 
	C561.881042,854.067444 563.544373,854.144958 565.678345,854.604919 
	C567.135681,856.023743 567.953491,857.343018 569.137817,857.969666 
	C574.673523,860.899048 580.588135,863.205322 585.826782,866.574829 
	C590.383057,869.505493 596.503967,870.787659 598.474854,877.008240 
	C600.574524,883.635010 602.815369,890.217041 604.994507,896.818604 
	C599.969116,896.869507 594.943787,896.920410 589.455261,896.905029 
	C586.903564,889.500732 584.840027,882.155334 582.688110,874.835999 
	C582.471252,874.098511 581.854309,873.295959 581.196472,872.898682 
	C572.606079,867.710876 564.742615,861.792908 553.566833,861.822510 
	C440.830475,862.121460 328.092987,862.015198 214.922134,862.031982 
	C214.529831,855.904907 214.571213,849.768555 214.836792,843.177917 
z"/>
<path fill="#E1E4E6" opacity="1.000000" stroke="none" 
	d="
M643.537292,782.959961 
	C646.155029,772.864197 648.772827,762.768433 651.498047,752.339905 
	C654.774170,745.122986 657.942932,738.238831 661.705750,731.184387 
	C663.579224,732.239807 665.152405,733.274475 666.092896,734.720581 
	C676.123047,750.143616 688.059326,763.810120 702.123901,775.743042 
	C721.653015,792.312317 743.971069,803.201721 768.602051,809.592957 
	C771.043945,810.226624 773.765198,809.784058 776.706543,809.883301 
	C781.394348,811.873413 785.732422,813.821228 790.336914,816.020996 
	C792.953003,823.553223 796.825073,829.568115 804.541565,831.995911 
	C807.560364,832.945618 810.769531,833.289917 814.092041,834.223755 
	C818.223755,842.292664 822.155396,850.047852 825.786743,858.068726 
	C816.110657,858.559265 806.685242,859.487976 797.371582,858.831238 
	C785.671692,858.006226 773.948242,856.466248 762.439514,854.197144 
	C739.177124,849.610657 717.803894,839.855835 697.694336,827.624756 
	C680.932556,817.429688 665.534424,805.332214 652.617004,790.307922 
	C650.119873,787.403442 646.590454,785.386414 643.537292,782.959961 
z"/>
<path fill="#E5E7EA" opacity="1.000000" stroke="none" 
	d="
M776.356812,809.841003 
	C773.765198,809.784058 771.043945,810.226624 768.602051,809.592957 
	C743.971069,803.201721 721.653015,792.312317 702.123901,775.743042 
	C688.059326,763.810120 676.123047,750.143616 666.092896,734.720581 
	C665.152405,733.274475 663.579224,732.239807 661.925171,730.938354 
	C670.568054,713.340820 682.770142,698.305664 697.602295,684.937378 
	C695.490601,694.996826 701.919434,702.365601 706.707275,709.833740 
	C726.942566,741.397583 755.687744,760.458496 792.896423,765.978577 
	C808.952332,768.360535 825.049683,767.804138 840.887207,763.583191 
	C843.220459,762.961365 845.712463,762.934875 848.306396,763.081970 
	C839.292297,772.902161 830.102661,782.273315 820.528931,791.712891 
	C813.705994,789.292542 807.340210,790.695007 800.761475,791.860840 
	C788.856934,785.958801 777.171143,780.326721 765.473938,774.718506 
	C755.125183,769.756836 744.833313,764.668274 734.383850,759.927673 
	C727.190002,756.663940 719.764832,759.465637 716.617004,766.139038 
	C713.440674,772.872864 716.045166,780.150879 723.010864,783.881470 
	C724.622009,784.744385 726.318848,785.445923 727.963745,786.247498 
	C744.096313,794.108826 760.226135,801.975708 776.356812,809.841003 
z"/>
<path fill="#828B92" opacity="1.000000" stroke="none" 
	d="
M811.734314,597.965820 
	C822.549683,598.964294 833.365112,599.962769 844.586792,601.047974 
	C844.205566,602.711914 843.690796,604.524963 842.573364,605.816833 
	C840.290283,608.456360 837.504944,610.664368 835.247620,613.322754 
	C830.918518,618.420837 825.503601,619.546265 818.967285,620.267029 
	C803.012451,622.026367 786.978943,624.202759 771.398560,627.959290 
	C748.573364,633.462524 727.510132,643.516541 708.307129,657.162720 
	C673.313171,682.030518 647.904907,714.254395 633.159851,754.790649 
	C625.072388,777.024170 620.656677,799.856995 619.872009,823.477417 
	C619.784424,826.113525 618.697998,829.270752 616.969299,831.190979 
	C612.308533,836.368103 607.050293,841.007263 601.573608,845.642578 
	C597.966064,826.001892 597.227417,806.533997 600.374817,786.935425 
	C608.018494,779.429077 615.334595,771.995056 622.617615,764.528870 
	C623.061707,764.073547 623.267334,763.374329 623.546570,762.771362 
	C627.389526,754.472839 631.097107,746.108887 635.087341,737.882019 
	C648.060791,711.133789 664.881653,687.325806 687.590210,667.767212 
	C703.995361,653.637573 722.035767,642.242615 741.663940,633.356934 
	C755.176331,627.239868 768.741272,621.445068 778.288574,609.311035 
	C780.005127,607.129395 782.527832,605.599365 784.522095,603.611755 
	C785.528931,602.608154 786.186157,601.253845 787.420898,599.987427 
	C795.804993,599.266418 803.769653,598.616089 811.734314,597.965820 
z"/>
<path fill="#D1D0D0" opacity="1.000000" stroke="none" 
	d="
M600.039734,787.000549 
	C597.227417,806.533997 597.966064,826.001892 601.228271,845.779907 
	C601.602722,848.471741 601.867065,850.808899 601.676025,853.576904 
	C599.472290,853.978149 597.723938,853.948486 595.982178,853.485107 
	C594.992004,843.514221 593.416504,833.993286 593.148743,824.435730 
	C592.833679,813.190063 592.974792,801.840759 594.160400,790.668152 
	C595.483154,778.202209 597.709961,765.773315 600.473450,753.538452 
	C602.546448,744.360718 606.090942,735.515259 609.397522,726.429565 
	C611.792542,726.324280 613.770447,726.311279 615.703491,726.637695 
	C614.705200,729.456421 613.731445,731.928223 612.801392,734.416382 
	C606.440674,751.432617 601.450684,768.782593 600.039734,787.000549 
z"/>
<path fill="#A5ADB6" opacity="1.000000" stroke="none" 
	d="
M595.975525,853.918823 
	C597.723938,853.948486 599.472290,853.978149 601.660156,854.019409 
	C606.678894,868.109436 611.258240,882.187683 615.894165,896.620728 
	C612.600586,896.967224 609.250305,896.958984 605.447327,896.884644 
	C602.815369,890.217041 600.574524,883.635010 598.474854,877.008240 
	C596.503967,870.787659 590.383057,869.505493 585.826782,866.574829 
	C580.588135,863.205322 574.673523,860.899048 569.137817,857.969666 
	C567.953491,857.343018 567.135681,856.023743 566.148315,854.694641 
	C566.147522,854.365784 566.114563,854.203735 566.530762,854.172852 
	C570.299866,854.100037 573.652710,854.058105 577.458008,854.049377 
	C580.937073,854.043213 583.963623,854.003845 587.439697,853.992676 
	C590.584595,853.986816 593.280029,853.952820 595.975525,853.918823 
z"/>
<path fill="#AEB7C1" opacity="1.000000" stroke="none" 
	d="
M503.694519,126.327652 
	C490.013245,129.753860 476.357086,133.284470 462.645630,136.585373 
	C430.043213,144.434128 397.414612,152.174149 364.399353,159.979050 
	C363.975647,154.642654 363.949249,149.285309 363.972565,143.462021 
	C378.716827,139.485611 393.414490,135.988007 408.105286,132.461868 
	C434.426544,126.144180 460.740936,119.797714 487.069427,113.510315 
	C488.663177,113.129730 490.355499,113.161842 492.493500,113.369232 
	C494.986267,119.267784 498.454285,123.551399 503.694519,126.327652 
z"/>
<path fill="#000000" opacity="1.000000" stroke="none" 
	d="
M503.955322,126.541061 
	C498.454285,123.551399 494.986267,119.267784 492.912476,113.371841 
	C490.519409,102.705330 495.450134,92.796700 504.816956,88.637642 
	C513.064758,84.975456 524.588501,86.651947 531.559570,97.905060 
	C534.330566,104.850182 534.887512,111.582138 530.984192,118.504433 
	C528.762085,120.886818 526.732300,123.118973 524.337341,124.844139 
	C518.063782,129.363266 511.164978,128.628372 503.955322,126.541061 
z"/>
<path fill="#DBDEE1" opacity="1.000000" stroke="none" 
	d="
M643.392395,783.364746 
	C646.590454,785.386414 650.119873,787.403442 652.617004,790.307922 
	C665.534424,805.332214 680.932556,817.429688 697.694336,827.624756 
	C717.803894,839.855835 739.177124,849.610657 762.439514,854.197144 
	C773.948242,856.466248 785.671692,858.006226 797.371582,858.831238 
	C806.685242,859.487976 816.110657,858.559265 826.067261,858.283813 
	C831.135742,867.124084 835.587158,876.033447 840.121826,884.900208 
	C844.215820,892.905029 848.400879,900.863159 852.545776,908.841858 
	C847.312927,910.202576 842.116089,912.544189 836.840332,912.738342 
	C821.613770,913.298706 806.346924,913.329346 791.111572,912.945190 
	C771.240417,912.444214 751.946533,908.259766 732.967957,902.509949 
	C708.308350,895.038879 685.137939,884.409546 663.652527,870.138062 
	C658.962769,867.022888 654.116028,864.144104 648.958740,861.136658 
	C642.068848,842.026733 640.105713,822.346313 641.210022,802.322449 
	C641.552124,796.119568 642.549866,789.952881 643.392395,783.364746 
z"/>
<path fill="#E5E7EA" opacity="1.000000" stroke="none" 
	d="
M599.980164,683.506409 
	C602.340881,678.837769 604.155151,673.775208 607.177307,669.583435 
	C613.277039,661.123169 620.051819,653.150757 626.491394,644.932678 
	C627.172668,644.063171 627.475769,642.897339 628.372375,641.450378 
	C637.461487,640.456909 640.428711,637.327209 641.165649,627.979065 
	C645.123962,625.132568 649.287537,622.530151 653.007812,619.400696 
	C680.276978,596.462769 711.185120,580.455017 745.380920,570.716125 
	C762.992798,565.700317 780.888977,562.302490 799.280334,561.927490 
	C803.081055,561.849976 806.871521,561.275146 811.090881,560.900696 
	C811.566650,564.599304 811.618347,568.326721 811.157471,572.512756 
	C806.851624,573.311951 803.039368,573.511841 799.268250,574.018188 
	C785.653503,575.846680 771.854248,576.882935 758.485046,579.844849 
	C723.376770,587.622986 691.959045,603.438965 663.826050,625.803467 
	C645.099976,640.689880 629.344543,658.326904 615.792358,677.966675 
	C614.732727,679.502197 614.565186,681.653259 613.529785,683.600220 
	C609.385559,683.793579 605.694397,683.904968 601.667725,683.922974 
	C600.881531,683.721802 600.430847,683.614136 599.980164,683.506409 
z"/>
<path fill="#DBDEE1" opacity="1.000000" stroke="none" 
	d="
M613.982971,683.518250 
	C614.565186,681.653259 614.732727,679.502197 615.792358,677.966675 
	C629.344543,658.326904 645.099976,640.689880 663.826050,625.803467 
	C691.959045,603.438965 723.376770,587.622986 758.485046,579.844849 
	C771.854248,576.882935 785.653503,575.846680 799.268250,574.018188 
	C803.039368,573.511841 806.851624,573.311951 811.063416,572.963501 
	C811.586792,575.342163 811.691711,577.728638 811.891174,580.553528 
	C811.905151,581.155334 811.824585,581.318787 811.207031,581.730835 
	C807.537354,582.308228 804.408569,582.873718 801.271179,582.926575 
	C784.026611,583.216675 767.249512,586.392944 750.732727,591.069153 
	C714.165161,601.422058 682.086609,619.831604 654.677429,646.048157 
	C645.705750,654.629456 637.874573,664.434631 629.858704,673.963501 
	C627.616699,676.628662 626.575500,680.304016 624.531982,683.596924 
	C620.714600,683.624695 617.348816,683.571472 613.982971,683.518250 
z"/>
<path fill="#D3D6DA" opacity="1.000000" stroke="none" 
	d="
M624.983459,683.515991 
	C626.575500,680.304016 627.616699,676.628662 629.858704,673.963501 
	C637.874573,664.434631 645.705750,654.629456 654.677429,646.048157 
	C682.086609,619.831604 714.165161,601.422058 750.732727,591.069153 
	C767.249512,586.392944 784.026611,583.216675 801.271179,582.926575 
	C804.408569,582.873718 807.537354,582.308228 811.085571,581.975708 
	C811.552856,584.999878 811.604736,588.027771 811.150391,591.509033 
	C798.609009,593.092712 786.453003,593.503845 774.563965,595.503174 
	C749.962402,599.640442 726.815186,608.155457 705.013123,620.427673 
	C680.810242,634.051453 660.370422,652.037109 642.608521,673.195862 
	C640.002502,676.300293 638.168823,680.053040 635.526978,683.585205 
	C631.712036,683.615051 628.347717,683.565552 624.983459,683.515991 
z"/>
<path fill="#D1CCC8" opacity="1.000000" stroke="none" 
	d="
M635.977722,683.505737 
	C638.168823,680.053040 640.002502,676.300293 642.608521,673.195862 
	C660.370422,652.037109 680.810242,634.051453 705.013123,620.427673 
	C726.815186,608.155457 749.962402,599.640442 774.563965,595.503174 
	C786.453003,593.503845 798.609009,593.092712 811.061646,591.952576 
	C811.569275,593.663025 811.659424,595.383484 811.741943,597.534790 
	C803.769653,598.616089 795.804993,599.266418 786.988892,599.958130 
	C784.976440,600.061340 783.801025,600.026917 782.656555,600.198975 
	C734.580750,607.426147 693.208496,627.999573 659.052856,662.687805 
	C652.430847,669.413086 646.485596,676.804749 639.799805,683.844849 
	C638.240234,683.702393 637.108948,683.604065 635.977722,683.505737 
z"/>
<path fill="#DBDEE1" opacity="1.000000" stroke="none" 
	d="
M979.738953,782.993347 
	C984.119446,809.878845 982.656555,836.380005 974.285217,862.728455 
	C967.851929,866.795776 961.608887,870.515137 955.449219,874.367859 
	C930.753967,889.814026 904.460571,901.522217 876.117615,908.481995 
	C874.842896,908.795044 873.626404,909.345398 871.846191,909.832275 
	C862.861450,893.278503 854.413330,876.677673 846.219299,859.847534 
	C850.045715,859.134521 853.660522,858.856934 857.183594,858.133118 
	C878.230896,853.808044 897.972839,845.937500 916.731567,835.596924 
	C937.261475,824.279907 955.648376,810.199524 971.117493,792.462830 
	C973.922607,789.246460 976.861694,786.146851 979.738953,782.993347 
z"/>
<path fill="#D83E05" opacity="1.000000" stroke="none" 
	d="
M845.965271,860.076782 
	C854.413330,876.677673 862.861450,893.278503 871.580933,910.115112 
	C873.577942,913.935608 875.349976,917.499023 877.017822,921.110535 
	C879.227112,925.894592 878.084473,930.190979 874.112122,932.378784 
	C870.024841,934.629883 865.387085,933.087708 862.849915,928.379578 
	C859.458374,922.085754 856.252563,915.691895 852.756409,909.091431 
	C848.400879,900.863159 844.215820,892.905029 840.121826,884.900208 
	C835.587158,876.033447 831.135742,867.124084 826.367554,858.018188 
	C822.155396,850.047852 818.223755,842.292664 814.282043,833.912720 
	C818.812561,830.828979 823.353088,828.369934 828.080139,826.213135 
	C834.166138,837.702576 840.065735,848.889648 845.965271,860.076782 
z"/>
<path fill="#464A4E" opacity="1.000000" stroke="none" 
	d="
M820.913025,791.644409 
	C830.102661,782.273315 839.292297,772.902161 848.620483,763.237976 
	C864.062805,747.749695 879.318054,732.504883 894.731873,717.422180 
	C896.640564,715.554382 899.253418,713.752686 901.782898,713.310730 
	C906.805542,712.433228 910.063477,716.726624 909.946411,723.568787 
	C908.660400,725.496704 907.479736,727.109375 906.082581,728.505310 
	C881.608093,752.958740 857.107056,777.385620 831.952209,801.846924 
	C827.832764,798.465271 824.372864,795.054871 820.913025,791.644409 
z"/>
<path fill="#E1E4E6" opacity="1.000000" stroke="none" 
	d="
M846.219299,859.847534 
	C840.065735,848.889648 834.166138,837.702576 828.197144,825.898193 
	C829.422424,823.187256 830.717163,821.093567 832.011963,818.999817 
	C849.301331,818.658691 865.319641,813.153809 880.932312,806.457520 
	C904.006104,796.561157 924.146729,782.250977 940.779480,763.479187 
	C948.781311,754.448486 955.430786,744.219421 962.862976,734.235901 
	C970.912964,746.617981 974.132324,760.987671 977.961365,775.134155 
	C978.597595,777.484741 979.131165,779.863098 979.725586,782.610962 
	C976.861694,786.146851 973.922607,789.246460 971.117493,792.462830 
	C955.648376,810.199524 937.261475,824.279907 916.731567,835.596924 
	C897.972839,845.937500 878.230896,853.808044 857.183594,858.133118 
	C853.660522,858.856934 850.045715,859.134521 846.219299,859.847534 
z"/>
<path fill="#202223" opacity="1.000000" stroke="none" 
	d="
M832.011475,818.585449 
	C830.717163,821.093567 829.422424,823.187256 828.010681,825.595886 
	C823.353088,828.369934 818.812561,830.828979 814.082031,833.599060 
	C810.769531,833.289917 807.560364,832.945618 804.541565,831.995911 
	C796.825073,829.568115 792.953003,823.553223 790.360718,815.600464 
	C790.286560,812.793457 790.475037,810.660278 790.619873,808.524231 
	C791.116882,801.191528 796.646790,797.047607 800.975220,792.141113 
	C807.340210,790.695007 813.705994,789.292542 820.528931,791.712891 
	C824.372864,795.054871 827.832764,798.465271 831.625000,801.934082 
	C831.975281,807.385376 831.993164,812.778198 832.011475,818.585449 
z"/>
<path fill="#43A5EB" opacity="1.000000" stroke="none" 
	d="
M456.000000,555.780762 
	C409.004578,555.780701 362.509125,555.781189 316.013702,555.780762 
	C302.383636,555.780640 299.772064,553.136353 299.773590,539.328430 
	C299.774170,534.162354 299.662964,528.992188 299.827698,523.831177 
	C300.035309,517.327393 304.058105,513.364807 310.527374,513.024719 
	C311.857147,512.954834 313.193176,512.997864 314.526306,512.997803 
	C446.846649,512.997070 579.166992,512.996704 711.487305,512.997925 
	C723.155640,512.998047 726.215637,516.079834 726.225586,527.835083 
	C726.230225,533.334534 726.316162,538.836243 726.187317,544.332764 
	C726.022766,551.351318 722.050903,555.331238 714.973999,555.751770 
	C713.313049,555.850525 711.641846,555.780457 709.975342,555.780457 
	C625.483582,555.781067 540.991760,555.780884 456.000000,555.780762 
z"/>
<path fill="#43A5EB" opacity="1.000000" stroke="none" 
	d="
M302.126587,346.322266 
	C306.176727,344.749054 309.981628,342.399200 313.796875,342.382385 
	C368.107056,342.142883 422.418640,342.218994 476.729889,342.218964 
	C554.864807,342.218933 632.999695,342.217865 711.134644,342.220184 
	C723.117981,342.220520 726.219788,345.325958 726.226074,357.309998 
	C726.228882,362.807739 726.323975,368.308228 726.183289,373.802490 
	C726.003113,380.844482 721.944092,384.761963 714.843506,384.992310 
	C713.678467,385.030090 712.511292,385.002777 711.345093,385.002777 
	C579.065552,385.003021 446.785980,385.003510 314.506439,385.002167 
	C302.863739,385.002075 299.784668,381.895416 299.773926,370.150116 
	C299.769043,364.818939 299.558990,359.474823 299.874481,354.162262 
	C300.025421,351.620819 301.183960,349.139252 302.126587,346.322266 
z"/>
<path fill="#43A5EB" opacity="1.000000" stroke="none" 
	d="
M641.111084,627.514771 
	C640.428711,637.327209 637.461487,640.456909 628.384949,641.098389 
	C624.481812,641.111023 620.984131,641.010071 617.486450,641.009766 
	C516.486816,641.001282 415.487213,641.003601 314.487610,641.002075 
	C302.846741,641.001892 299.783478,637.902039 299.774261,626.121277 
	C299.769958,620.621338 299.687744,615.119263 299.810883,609.622009 
	C299.963287,602.817078 303.818695,598.815002 310.559753,598.271667 
	C311.885284,598.164795 313.224823,598.220642 314.557922,598.220642 
	C418.224182,598.218933 521.890442,598.218689 625.556702,598.222351 
	C627.222717,598.222412 628.901855,598.144714 630.552368,598.318176 
	C636.990723,598.994995 640.811829,603.054321 640.970398,609.551636 
	C641.112610,615.381775 641.036377,621.217346 641.111084,627.514771 
z"/>
<path fill="#42A4EB" opacity="1.000000" stroke="none" 
	d="
M388.000000,427.776459 
	C467.633179,427.776550 546.766357,427.775269 625.899536,427.778503 
	C638.003479,427.778992 640.995667,430.756500 640.999634,442.758514 
	C641.001282,447.756409 641.034180,452.754578 640.991028,457.752106 
	C640.916931,466.336792 637.080322,470.107422 628.379089,470.218231 
	C627.546204,470.228821 626.713135,470.222870 625.880127,470.222870 
	C522.090698,470.223114 418.301331,470.227783 314.511932,470.196869 
	C311.868103,470.196075 309.052277,470.310730 306.617737,469.484467 
	C302.070740,467.941223 299.824860,464.343323 299.808624,459.481323 
	C299.786896,452.984222 299.731201,446.486542 299.794159,439.990112 
	C299.876282,431.518158 303.531647,427.816895 312.032227,427.798462 
	C337.188080,427.743835 362.344055,427.777466 388.000000,427.776459 
z"/>
<path fill="#42A4EB" opacity="1.000000" stroke="none" 
	d="
M599.518921,683.585083 
	C600.430847,683.614136 600.881531,683.721802 601.605347,684.276428 
	C600.549500,687.366455 599.123840,689.965881 597.908569,692.660278 
	C592.904480,703.754456 587.964233,714.877502 582.572144,726.069092 
	C580.410461,726.261536 578.677063,726.374878 576.943726,726.488159 
	C573.949646,726.399841 570.955627,726.234985 567.961548,726.234497 
	C483.801666,726.220581 399.641815,726.223633 315.481934,726.221008 
	C313.649078,726.220947 311.810547,726.273499 309.984436,726.153198 
	C303.924072,725.753845 300.059875,722.031860 299.875763,715.942200 
	C299.659332,708.782898 299.674133,701.609009 299.847961,694.447693 
	C300.008545,687.834167 303.910950,684.114319 310.583801,683.813416 
	C312.413513,683.730896 314.249420,683.777893 316.082489,683.777832 
	C407.575104,683.775818 499.067688,683.776123 590.560303,683.769531 
	C593.392761,683.769348 596.225159,683.700500 599.518921,683.585083 
z"/>
<path fill="#C0C9D5" opacity="1.000000" stroke="none" 
	d="
M495.460388,192.922546 
	C496.294678,191.998199 497.483185,190.648575 498.914978,190.300949 
	C532.658752,182.108047 566.432129,174.037582 600.192627,165.913300 
	C620.546082,161.015350 640.886719,156.064514 661.616577,151.068726 
	C662.019531,157.320114 662.071533,163.640335 662.052002,169.960327 
	C662.007202,184.463043 653.567017,192.963837 639.141541,192.975784 
	C604.377563,193.004578 569.613586,193.000427 534.849609,193.000885 
	C521.875732,193.001053 508.901825,192.977051 495.460388,192.922546 
z"/>
<path fill="#E5E7EA" opacity="1.000000" stroke="none" 
	d="
M576.946655,726.856018 
	C578.677063,726.374878 580.410461,726.261536 582.994446,726.141724 
	C585.547974,726.247681 587.250793,726.360229 588.955139,726.840698 
	C587.735901,731.333740 586.559998,735.472778 585.286926,739.581726 
	C578.283875,762.185181 573.654907,785.237244 574.132935,808.966248 
	C574.435669,823.996033 576.004517,839.000366 577.005554,854.016113 
	C573.652710,854.058105 570.299866,854.100037 566.494568,854.098572 
	C565.028870,838.332458 563.411682,822.620056 563.142456,806.884644 
	C562.726929,782.606140 567.373047,758.986328 574.544617,735.843201 
	C575.427124,732.995178 576.151794,730.098206 576.946655,726.856018 
z"/>
<path fill="#464A4E" opacity="1.000000" stroke="none" 
	d="
M800.761475,791.860840 
	C796.646790,797.047607 791.116882,801.191528 790.619873,808.524231 
	C790.475037,810.660278 790.286560,812.793457 790.094299,815.348511 
	C785.732422,813.821228 781.394348,811.873413 776.706543,809.883301 
	C760.226135,801.975708 744.096313,794.108826 727.963745,786.247498 
	C726.318848,785.445923 724.622009,784.744385 723.010864,783.881470 
	C716.045166,780.150879 713.440674,772.872864 716.617004,766.139038 
	C719.764832,759.465637 727.190002,756.663940 734.383850,759.927673 
	C744.833313,764.668274 755.125183,769.756836 765.473938,774.718506 
	C777.171143,780.326721 788.856934,785.958801 800.761475,791.860840 
z"/>
<path fill="#868E96" opacity="1.000000" stroke="none" 
	d="
M640.228149,683.889038 
	C646.485596,676.804749 652.430847,669.413086 659.052856,662.687805 
	C693.208496,627.999573 734.580750,607.426147 782.656555,600.198975 
	C783.801025,600.026917 784.976440,600.061340 786.569458,600.028809 
	C786.186157,601.253845 785.528931,602.608154 784.522095,603.611755 
	C782.527832,605.599365 780.005127,607.129395 778.288574,609.311035 
	C768.741272,621.445068 755.176331,627.239868 741.663940,633.356934 
	C722.035767,642.242615 703.995361,653.637573 687.590210,667.767212 
	C664.881653,687.325806 648.060791,711.133789 635.087341,737.882019 
	C631.097107,746.108887 627.389526,754.472839 623.546570,762.771362 
	C623.267334,763.374329 623.061707,764.073547 622.617615,764.528870 
	C615.334595,771.995056 608.018494,779.429077 600.374817,786.935425 
	C601.450684,768.782593 606.440674,751.432617 612.801392,734.416382 
	C613.731445,731.928223 614.705200,729.456421 615.944153,726.345764 
	C618.501221,721.096680 620.500122,716.318604 623.100647,711.894104 
	C628.644348,702.461853 634.500244,693.213074 640.228149,683.889038 
z"/>
<path fill="#3D97D9" opacity="1.000000" stroke="none" 
	d="
M639.799805,683.844849 
	C634.500244,693.213074 628.644348,702.461853 623.100647,711.894104 
	C620.500122,716.318604 618.501221,721.096680 615.988953,726.006348 
	C613.770447,726.311279 611.792542,726.324280 608.948486,726.333435 
	C604.714478,726.377563 601.346558,726.425476 597.535156,726.387085 
	C594.378967,726.358093 591.666321,726.415466 588.953674,726.472778 
	C587.250793,726.360229 585.547974,726.247681 583.422852,726.062500 
	C587.964233,714.877502 592.904480,703.754456 597.908569,692.660278 
	C599.123840,689.965881 600.549500,687.366455 601.940857,684.369873 
	C605.694397,683.904968 609.385559,683.793579 613.529785,683.600220 
	C617.348816,683.571472 620.714600,683.624695 624.531982,683.596924 
	C628.347717,683.565552 631.712036,683.615051 635.526978,683.585205 
	C637.108948,683.604065 638.240234,683.702393 639.799805,683.844849 
z"/>
<path fill="#D3D6DA" opacity="1.000000" stroke="none" 
	d="
M597.978699,726.473450 
	C601.346558,726.425476 604.714478,726.377563 608.531372,726.425781 
	C606.090942,735.515259 602.546448,744.360718 600.473450,753.538452 
	C597.709961,765.773315 595.483154,778.202209 594.160400,790.668152 
	C592.974792,801.840759 592.833679,813.190063 593.148743,824.435730 
	C593.416504,833.993286 594.992004,843.514221 595.982178,853.485107 
	C593.280029,853.952820 590.584595,853.986816 587.369019,853.600708 
	C585.572266,843.675964 583.615784,834.204529 583.148987,824.660217 
	C581.851746,798.138977 584.633057,772.003540 592.306641,746.479553 
	C594.302124,739.842346 596.093567,733.143799 597.978699,726.473450 
z"/>
<path fill="#DBDEE1" opacity="1.000000" stroke="none" 
	d="
M597.535156,726.387085 
	C596.093567,733.143799 594.302124,739.842346 592.306641,746.479553 
	C584.633057,772.003540 581.851746,798.138977 583.148987,824.660217 
	C583.615784,834.204529 585.572266,843.675964 586.919556,853.572571 
	C583.963623,854.003845 580.937073,854.043213 577.458008,854.049316 
	C576.004517,839.000366 574.435669,823.996033 574.132935,808.966248 
	C573.654907,785.237244 578.283875,762.185181 585.286926,739.581726 
	C586.559998,735.472778 587.735901,731.333740 588.955139,726.840698 
	C591.666321,726.415466 594.378967,726.358093 597.535156,726.387085 
z"/>
</svg>