<svg version="1.1" id="Layer_1" xmlns="http://www.w3.org/2000/svg" xmlns:xlink="http://www.w3.org/1999/xlink" x="0px" y="0px"
	 width="100%" viewBox="0 0 1024 1024" enable-background="new 0 0 1024 1024" xml:space="preserve">
<path fill="#000000" opacity="0.000000" stroke="none" 
	d="
M577.000000,1025.000000 
	C384.666656,1025.000000 192.833328,1025.000000 1.000000,1025.000000 
	C1.000000,683.666687 1.000000,342.333344 1.000000,1.000000 
	C342.333344,1.000000 683.666687,1.000000 1025.000000,1.000000 
	C1025.000000,342.333344 1025.000000,683.666687 1025.000000,1025.000000 
	C875.833313,1025.000000 726.666687,1025.000000 577.000000,1025.000000 
M918.976990,298.965546 
	C918.984558,270.171783 919.147156,241.376556 918.878357,212.585358 
	C918.819458,206.282410 917.668091,199.891571 916.250244,193.717941 
	C912.143066,175.833633 902.748718,161.101227 888.754333,149.230850 
	C873.938721,136.663925 857.111206,129.148682 837.483459,129.039459 
	C807.692200,128.873657 777.899414,128.967941 748.012390,128.023682 
	C747.674133,117.951157 748.848389,107.542839 746.701416,97.871864 
	C741.235229,73.249969 720.100586,61.385323 696.849731,65.373413 
	C675.842468,68.976669 661.625305,86.383354 661.977661,108.472794 
	C662.086548,115.296913 661.928528,122.125305 660.969604,128.992020 
	C562.015503,128.978592 463.061432,128.965179 364.012482,128.023773 
	C363.674194,117.951263 364.848389,107.542984 362.701416,97.872017 
	C357.235291,73.249992 336.100677,61.385365 312.849792,65.373390 
	C291.842712,68.976562 277.625153,86.383385 277.977661,108.472809 
	C278.086578,115.296936 277.928497,122.125328 276.969543,128.992035 
	C246.685211,128.994781 216.400558,128.929276 186.116959,129.079147 
	C181.922531,129.099915 177.655655,129.858292 173.555191,130.833771 
	C155.243591,135.189987 139.939285,144.373718 127.568909,158.791260 
	C114.828560,173.639984 107.739693,190.861481 107.226837,210.034668 
	C106.426361,239.960129 107.104530,269.925140 107.023376,300.829987 
	C107.076813,314.641724 107.130257,328.453430 107.036858,343.158691 
	C107.024635,489.478119 106.986641,635.797546 107.043816,782.116943 
	C107.048988,795.369324 107.502235,808.628296 108.049492,821.871704 
	C108.526886,833.424255 112.762566,843.848572 118.312164,853.867004 
	C124.578270,865.178772 132.889145,874.664795 143.516541,881.903381 
	C155.945908,890.369202 169.533981,896.868225 184.795151,896.880432 
	C403.608002,897.055176 622.420959,897.007935 841.233948,896.931519 
	C844.919250,896.930237 848.676880,896.197327 852.277039,895.306091 
	C870.301514,890.844116 885.548889,881.943970 897.884521,867.764404 
	C911.461487,852.158142 918.809265,834.024902 918.845886,813.707458 
	C919.126038,658.389160 919.000488,503.070007 918.992371,347.751129 
	C918.992249,345.922180 918.877502,344.093201 918.971924,341.288910 
	C918.929321,327.485657 918.886719,313.682373 918.976990,298.965546 
z"/>
<path fill="#CFD8DC" opacity="1.000000" stroke="none" 
	d="
M918.816284,342.264252 
	C918.877502,344.093201 918.992249,345.922180 918.992371,347.751129 
	C919.000488,503.070007 919.126038,658.389160 918.845886,813.707458 
	C918.809265,834.024902 911.461487,852.158142 897.884521,867.764404 
	C885.548889,881.943970 870.301514,890.844116 852.277039,895.306091 
	C848.676880,896.197327 844.919250,896.930237 841.233948,896.931519 
	C622.420959,897.007935 403.608002,897.055176 184.795151,896.880432 
	C169.533981,896.868225 155.945908,890.369202 143.516541,881.903381 
	C132.889145,874.664795 124.578270,865.178772 118.312164,853.867004 
	C112.762566,843.848572 108.526886,833.424255 108.049492,821.871704 
	C107.502235,808.628296 107.048988,795.369324 107.043816,782.116943 
	C106.986641,635.797546 107.024635,489.478119 107.317108,342.678528 
	C107.597351,342.198364 107.980026,342.029602 108.444687,342.106934 
	C110.075226,342.199524 111.241096,342.228058 112.406967,342.228058 
	C379.283203,342.230042 646.159424,342.230347 913.035645,342.221771 
	C914.697021,342.221741 916.358459,342.096466 918.211182,342.114624 
	C918.402527,342.199585 918.816223,342.264252 918.816284,342.264252 
M293.503967,577.000000 
	C329.140961,577.000000 364.777954,577.000549 400.414948,576.998901 
	C403.225037,576.998779 406.092255,577.607971 406.080170,573.008118 
	C405.975250,533.041748 406.001129,493.074890 406.058624,453.108276 
	C406.062866,450.157379 405.105621,448.957001 402.030060,448.961914 
	C362.063446,449.025909 322.096710,449.023132 282.130096,448.964600 
	C279.175415,448.960297 277.980164,449.918793 277.985077,452.992371 
	C278.048889,492.958984 278.045959,532.925720 277.988403,572.892334 
	C277.984161,575.841736 278.928894,577.182007 282.016602,577.034363 
	C285.505615,576.867615 289.008911,576.998535 293.503967,577.000000 
M449.000000,507.500000 
	C449.000214,528.983337 449.086060,550.467285 448.922943,571.949341 
	C448.893066,575.887634 450.091614,577.088257 454.041656,577.075562 
	C493.344055,576.949951 532.647156,576.950684 571.949524,577.074646 
	C575.885010,577.087097 577.088257,575.908875 577.075562,571.958557 
	C576.949951,532.656189 576.950684,493.353088 577.074707,454.050720 
	C577.087097,450.115479 575.909424,448.911804 571.958740,448.924408 
	C532.656372,449.050110 493.353271,449.049316 454.050903,448.925354 
	C450.116058,448.912964 448.879822,450.086731 448.921295,454.041595 
	C449.104645,471.526093 449.000214,489.013580 449.000000,507.500000 
M687.500000,449.000000 
	C666.684082,449.000183 645.867432,449.085236 625.052795,448.925079 
	C621.147400,448.895020 619.886169,450.042236 619.899170,454.024445 
	C620.027222,493.324463 620.023132,532.625183 619.903931,571.925232 
	C619.892151,575.825989 621.017517,577.090454 625.002136,577.077393 
	C664.302124,576.948486 703.602844,576.952332 742.902893,577.072754 
	C746.807312,577.084717 748.067017,575.958801 748.054016,571.976074 
	C747.925415,532.676086 747.929626,493.375305 748.049072,454.075226 
	C748.060913,450.175964 746.944885,448.878479 742.953552,448.919250 
	C724.803955,449.104675 706.651489,449.000214 687.500000,449.000000 
M493.500000,619.975769 
	C480.510834,619.975952 467.518005,620.152100 454.534576,619.878967 
	C450.100067,619.785706 448.891693,621.167419 448.909210,625.543396 
	C449.065308,664.510132 449.067871,703.478088 448.906586,742.444763 
	C448.888275,746.870483 450.190216,748.085205 454.565277,748.067688 
	C493.532013,747.911804 532.500000,747.909424 571.466675,748.070007 
	C575.888428,748.088196 577.108704,746.792236 577.091125,742.412903 
	C576.934387,703.446167 576.932434,664.478210 577.093079,625.511536 
	C577.111267,621.088928 575.814941,619.851074 571.434875,619.883301 
	C545.791077,620.072327 520.145203,619.975830 493.500000,619.975769 
M659.500000,747.775513 
	C688.764099,747.775513 718.028259,747.775513 747.461426,747.775513 
	C747.461426,704.810486 747.461426,662.568787 747.461426,620.212280 
	C704.785461,620.212280 662.425171,620.212280 620.182007,620.212280 
	C620.182007,662.886108 620.182007,705.116455 620.182007,747.775330 
	C633.226196,747.775330 645.863098,747.775330 659.500000,747.775513 
M406.024353,637.501343 
	C406.024261,633.503296 405.750031,629.481201 406.096924,625.513489 
	C406.487030,621.051270 404.806152,619.869141 400.441895,619.886353 
	C361.461700,620.040344 322.480316,620.047607 283.500244,619.879639 
	C278.985992,619.860168 277.920837,621.323364 277.937103,625.611206 
	C278.083740,664.258301 278.018188,702.906250 278.027527,741.553894 
	C278.029053,747.865601 278.137054,747.971375 284.496796,747.972839 
	C322.977844,747.981750 361.459290,747.897522 399.939484,748.078796 
	C404.720184,748.101318 406.158112,746.810852 406.130066,741.949158 
	C405.931274,707.467285 406.024353,672.983704 406.024353,637.501343 
z"/>
<path fill="#F44336" opacity="1.000000" stroke="none" 
	d="
M918.019897,342.029663 
	C916.358459,342.096466 914.697021,342.221741 913.035645,342.221771 
	C646.159424,342.230347 379.283203,342.230042 112.406967,342.228058 
	C111.241096,342.228058 110.075226,342.199524 108.450958,341.636108 
	C107.995041,329.112701 108.031906,317.137299 107.962349,305.162506 
	C107.952095,303.397980 107.437462,301.636383 107.156189,299.873413 
	C107.104530,269.925140 106.426361,239.960129 107.226837,210.034668 
	C107.739693,190.861481 114.828560,173.639984 127.568909,158.791260 
	C139.939285,144.373718 155.243591,135.189987 173.555191,130.833771 
	C177.655655,129.858292 181.922531,129.099915 186.116959,129.079147 
	C216.400558,128.929276 246.685211,128.994781 277.550659,129.430389 
	C278.084045,142.270248 278.036316,154.671783 277.699951,167.231323 
	C275.295624,169.726501 273.058350,171.965561 271.082733,174.415649 
	C244.619110,207.234833 256.630585,255.778824 294.940125,272.641602 
	C328.547119,287.434448 364.518463,273.090057 379.658478,239.589050 
	C391.214386,214.018829 383.736633,184.868103 363.923767,166.595764 
	C363.927307,153.737106 364.017334,141.344437 364.107361,128.951767 
	C463.061432,128.965179 562.015503,128.978592 661.550659,129.430374 
	C662.084045,142.270248 662.036316,154.671783 661.699951,167.231293 
	C659.295654,169.726456 657.058472,171.965561 655.082825,174.415604 
	C628.619080,207.234268 640.630493,255.778793 678.940063,272.641571 
	C712.547058,287.434418 748.518066,273.090149 763.658386,239.589020 
	C775.215210,214.017258 767.734985,184.865845 747.923706,166.595840 
	C747.927246,153.737122 748.017273,141.344437 748.107300,128.951736 
	C777.899414,128.967941 807.692200,128.873657 837.483459,129.039459 
	C857.111206,129.148682 873.938721,136.663925 888.754333,149.230850 
	C902.748718,161.101227 912.143066,175.833633 916.250244,193.717941 
	C917.668091,199.891571 918.819458,206.282410 918.878357,212.585358 
	C919.147156,241.376556 918.984558,270.171783 918.661743,299.769592 
	C918.237610,314.392303 918.128723,328.210968 918.019897,342.029663 
z"/>
<path fill="#B0BEC5" opacity="1.000000" stroke="none" 
	d="
M364.059937,128.487762 
	C364.017334,141.344437 363.927307,153.737106 363.833466,167.050644 
	C363.807343,181.626129 363.930878,195.283371 363.687164,208.934036 
	C363.596222,214.028122 363.023041,219.181702 362.026733,224.179962 
	C357.332794,247.727676 331.504211,262.729034 308.605652,255.247711 
	C292.124420,249.863052 278.156403,234.803284 278.215332,213.014999 
	C278.256744,197.701416 278.072235,182.387222 277.988586,167.073303 
	C278.036316,154.671783 278.084045,142.270248 278.012207,129.410248 
	C277.928497,122.125328 278.086578,115.296936 277.977661,108.472809 
	C277.625153,86.383385 291.842712,68.976562 312.849792,65.373390 
	C336.100677,61.385365 357.235291,73.249992 362.701416,97.872017 
	C364.848389,107.542984 363.674194,117.951263 364.059937,128.487762 
z"/>
<path fill="#B0BEC5" opacity="1.000000" stroke="none" 
	d="
M661.988647,167.073303 
	C662.036316,154.671783 662.084045,142.270248 662.012207,129.410233 
	C661.928528,122.125305 662.086548,115.296913 661.977661,108.472794 
	C661.625305,86.383354 675.842468,68.976669 696.849731,65.373413 
	C720.100586,61.385323 741.235229,73.249969 746.701416,97.871864 
	C748.848389,107.542839 747.674133,117.951157 748.059814,128.487701 
	C748.017273,141.344437 747.927246,153.737122 747.833496,167.050705 
	C747.807373,181.626221 747.930786,195.283447 747.687073,208.934128 
	C747.596069,214.028229 747.023010,219.181778 746.026794,224.180084 
	C741.333374,247.727371 715.504089,262.729034 692.605591,255.247665 
	C676.123230,249.862579 662.156616,234.802658 662.215271,213.014999 
	C662.256531,197.701416 662.072205,182.387222 661.988647,167.073303 
z"/>
<path fill="#E47D78" opacity="1.000000" stroke="none" 
	d="
M107.089783,300.351685 
	C107.437462,301.636383 107.952095,303.397980 107.962349,305.162506 
	C108.031906,317.137299 107.995041,329.112701 107.986298,341.558777 
	C107.980026,342.029602 107.597351,342.198364 107.390518,342.231750 
	C107.130257,328.453430 107.076813,314.641724 107.089783,300.351685 
z"/>
<path fill="#E47D78" opacity="1.000000" stroke="none" 
	d="
M918.211182,342.114624 
	C918.128723,328.210968 918.237610,314.392303 918.595276,300.226379 
	C918.886719,313.682373 918.929321,327.485657 918.894043,341.776581 
	C918.816223,342.264252 918.402527,342.199585 918.211182,342.114624 
z"/>
<path fill="#B0BEC5" opacity="1.000000" stroke="none" 
	d="
M293.004974,577.000000 
	C289.008911,576.998535 285.505615,576.867615 282.016602,577.034363 
	C278.928894,577.182007 277.984161,575.841736 277.988403,572.892334 
	C278.045959,532.925720 278.048889,492.958984 277.985077,452.992371 
	C277.980164,449.918793 279.175415,448.960297 282.130096,448.964600 
	C322.096710,449.023132 362.063446,449.025909 402.030060,448.961914 
	C405.105621,448.957001 406.062866,450.157379 406.058624,453.108276 
	C406.001129,493.074890 405.975250,533.041748 406.080170,573.008118 
	C406.092255,577.607971 403.225037,576.998779 400.414948,576.998901 
	C364.777954,577.000549 329.140961,577.000000 293.004974,577.000000 
z"/>
<path fill="#B0BEC5" opacity="1.000000" stroke="none" 
	d="
M449.000000,507.000000 
	C449.000214,489.013580 449.104645,471.526093 448.921295,454.041595 
	C448.879822,450.086731 450.116058,448.912964 454.050903,448.925354 
	C493.353271,449.049316 532.656372,449.050110 571.958740,448.924408 
	C575.909424,448.911804 577.087097,450.115479 577.074707,454.050720 
	C576.950684,493.353088 576.949951,532.656189 577.075562,571.958557 
	C577.088257,575.908875 575.885010,577.087097 571.949524,577.074646 
	C532.647156,576.950684 493.344055,576.949951 454.041656,577.075562 
	C450.091614,577.088257 448.893066,575.887634 448.922943,571.949341 
	C449.086060,550.467285 449.000214,528.983337 449.000000,507.000000 
z"/>
<path fill="#B0BEC5" opacity="1.000000" stroke="none" 
	d="
M688.000000,449.000000 
	C706.651489,449.000214 724.803955,449.104675 742.953552,448.919250 
	C746.944885,448.878479 748.060913,450.175964 748.049072,454.075226 
	C747.929626,493.375305 747.925415,532.676086 748.054016,571.976074 
	C748.067017,575.958801 746.807312,577.084717 742.902893,577.072754 
	C703.602844,576.952332 664.302124,576.948486 625.002136,577.077393 
	C621.017517,577.090454 619.892151,575.825989 619.903931,571.925232 
	C620.023132,532.625183 620.027222,493.324463 619.899170,454.024445 
	C619.886169,450.042236 621.147400,448.895020 625.052795,448.925079 
	C645.867432,449.085236 666.684082,449.000183 688.000000,449.000000 
z"/>
<path fill="#B0BEC5" opacity="1.000000" stroke="none" 
	d="
M494.000000,619.975708 
	C520.145203,619.975830 545.791077,620.072327 571.434875,619.883301 
	C575.814941,619.851074 577.111267,621.088928 577.093079,625.511536 
	C576.932434,664.478210 576.934387,703.446167 577.091125,742.412903 
	C577.108704,746.792236 575.888428,748.088196 571.466675,748.070007 
	C532.500000,747.909424 493.532013,747.911804 454.565277,748.067688 
	C450.190216,748.085205 448.888275,746.870483 448.906586,742.444763 
	C449.067871,703.478088 449.065308,664.510132 448.909210,625.543396 
	C448.891693,621.167419 450.100067,619.785706 454.534576,619.878967 
	C467.518005,620.152100 480.510834,619.975952 494.000000,619.975708 
z"/>
<path fill="#F44336" opacity="1.000000" stroke="none" 
	d="
M659.000000,747.775391 
	C645.863098,747.775330 633.226196,747.775330 620.182007,747.775330 
	C620.182007,705.116455 620.182007,662.886108 620.182007,620.212280 
	C662.425171,620.212280 704.785461,620.212280 747.461426,620.212280 
	C747.461426,662.568787 747.461426,704.810486 747.461426,747.775513 
	C718.028259,747.775513 688.764099,747.775513 659.000000,747.775391 
z"/>
<path fill="#B0BEC5" opacity="1.000000" stroke="none" 
	d="
M406.024414,638.000977 
	C406.024353,672.983704 405.931274,707.467285 406.130066,741.949158 
	C406.158112,746.810852 404.720184,748.101318 399.939484,748.078796 
	C361.459290,747.897522 322.977844,747.981750 284.496796,747.972839 
	C278.137054,747.971375 278.029053,747.865601 278.027527,741.553894 
	C278.018188,702.906250 278.083740,664.258301 277.937103,625.611206 
	C277.920837,621.323364 278.985992,619.860168 283.500244,619.879639 
	C322.480316,620.047607 361.461700,620.040344 400.441895,619.886353 
	C404.806152,619.869141 406.487030,621.051270 406.096924,625.513489 
	C405.750031,629.481201 406.024261,633.503296 406.024414,638.000977 
z"/>
<path fill="#B71D1D" opacity="1.000000" stroke="none" 
	d="
M277.699921,167.231323 
	C278.072235,182.387222 278.256744,197.701416 278.215332,213.014999 
	C278.156403,234.803284 292.124420,249.863052 308.605652,255.247711 
	C331.504211,262.729034 357.332794,247.727676 362.026733,224.179962 
	C363.023041,219.181702 363.596222,214.028122 363.687164,208.934036 
	C363.930878,195.283371 363.807343,181.626129 363.919983,167.516632 
	C383.736633,184.868103 391.214386,214.018829 379.658478,239.589050 
	C364.518463,273.090057 328.547119,287.434448 294.940125,272.641602 
	C256.630585,255.778824 244.619110,207.234833 271.082733,174.415649 
	C273.058350,171.965561 275.295624,169.726501 277.699921,167.231323 
z"/>
<path fill="#B71D1D" opacity="1.000000" stroke="none" 
	d="
M661.699951,167.231293 
	C662.072205,182.387222 662.256531,197.701416 662.215271,213.014999 
	C662.156616,234.802658 676.123230,249.862579 692.605591,255.247665 
	C715.504089,262.729034 741.333374,247.727371 746.026794,224.180084 
	C747.023010,219.181778 747.596069,214.028229 747.687073,208.934128 
	C747.930786,195.283447 747.807373,181.626221 747.919922,167.516724 
	C767.734985,184.865845 775.215210,214.017258 763.658386,239.589020 
	C748.518066,273.090149 712.547058,287.434418 678.940063,272.641571 
	C640.630493,255.778793 628.619080,207.234268 655.082825,174.415604 
	C657.058472,171.965561 659.295654,169.726456 661.699951,167.231293 
z"/>
</svg>