<svg xmlns="http://www.w3.org/2000/svg" viewBox="0 0 48 48" width="96px" height="96px" baseProfile="basic">
    <linearGradient id="0wMkK2cPCxUdx6Mr9ydTna" x1="5.575" x2="60.093" y1="8.539" y2="54.285"
                    gradientUnits="userSpaceOnUse">
        <stop offset="0" stop-color="#faf3df"/>
        <stop offset="1" stop-color="#84b8aa"/>
    </linearGradient>
    <circle cx="24" cy="24" r="16" fill="url(#0wMkK2cPCxUdx6Mr9ydTna)"/>
    <linearGradient id="0wMkK2cPCxUdx6Mr9ydTnb" x1="-3.111" x2="60.156" y1="56.31" y2="-19.089"
                    gradientUnits="userSpaceOnUse">
        <stop offset="0" stop-color="#cae8d4"/>
        <stop offset="1" stop-color="#2d3352"/>
    </linearGradient>
    <path fill="url(#0wMkK2cPCxUdx6Mr9ydTnb)"
          d="M24,8c8.822,0,16,7.178,16,16s-7.178,16-16,16S8,32.822,8,24S15.178,8,24,8L24,8z M24,4	C12.955,4,4,12.955,4,24s8.955,20,20,20s20-8.955,20-20S35.045,4,24,4L24,4z"/>
    <linearGradient id="0wMkK2cPCxUdx6Mr9ydTnc" x1="17.236" x2="31.943" y1="24.446" y2="6.918"
                    gradientUnits="userSpaceOnUse">
        <stop offset="0" stop-color="#cae8d4"/>
        <stop offset="1" stop-color="#2d3352"/>
    </linearGradient>
    <path fill="url(#0wMkK2cPCxUdx6Mr9ydTnc)"
          d="M26,21.77C25.47,21.29,24.77,21,24,21s-1.47,0.29-2,0.77V11h1c1.657,0,3,1.343,3,3V21.77z"/>
    <linearGradient id="0wMkK2cPCxUdx6Mr9ydTnd" x1="28.566" x2="28.566" y1="39.288" y2="20.084"
                    gradientUnits="userSpaceOnUse">
        <stop offset="0" stop-color="#cae8d4"/>
        <stop offset="1" stop-color="#2d3352"/>
    </linearGradient>
    <path fill="url(#0wMkK2cPCxUdx6Mr9ydTnd)"
          d="M26.99,24.16l5.983,5.994l-0.699,0.699c-1.171,1.171-3.069,1.172-4.241,0.002L24.16,26.99	C25.69,26.92,26.92,25.69,26.99,24.16z"/>
    <linearGradient id="0wMkK2cPCxUdx6Mr9ydTne" x1="22.651" x2="25.394" y1="31.65" y2="16.094"
                    gradientUnits="userSpaceOnUse">
        <stop offset="0" stop-color="#cae8d4"/>
        <stop offset="1" stop-color="#2d3352"/>
    </linearGradient>
    <circle cx="24" cy="24" r="3" fill="url(#0wMkK2cPCxUdx6Mr9ydTne)"/>
</svg>