<svg version="1.0" xmlns="http://www.w3.org/2000/svg"
 width="500.000000pt" height="500.000000pt" viewBox="0 0 500.000000 500.000000"
 preserveAspectRatio="xMidYMid meet">
<g transform="translate(0.000000,500.000000) scale(0.100000,-0.100000)"
fill="currentColor" stroke="none">
<path d="M2221 4564 c-409 -56 -784 -229 -1108 -511 l-73 -64 0 111 c0 124
-12 165 -62 217 -86 89 -242 75 -313 -27 -41 -59 -47 -134 -43 -537 l3 -368
28 -48 c35 -60 87 -94 157 -104 30 -4 226 -6 435 -3 361 5 382 6 420 26 62 32
98 91 103 168 5 75 -17 127 -74 175 -49 40 -107 51 -267 51 l-132 1 68 65
c329 315 812 484 1268 444 413 -36 754 -194 1045 -484 292 -293 449 -632 484
-1048 18 -213 -17 -485 -87 -683 -144 -405 -463 -761 -847 -945 -133 -63 -217
-93 -356 -124 -508 -113 -1027 9 -1426 335 -109 89 -248 242 -325 357 -172
257 -256 508 -283 847 -12 157 -15 168 -42 207 -43 62 -104 90 -181 86 -77 -5
-135 -41 -170 -107 -20 -38 -23 -59 -23 -147 0 -283 82 -616 219 -887 358
-707 1071 -1147 1861 -1147 331 0 631 70 920 213 716 357 1160 1071 1160 1867
0 1048 -774 1929 -1813 2065 -145 19 -404 18 -546 -1z"/>
<path d="M2430 3637 c-50 -16 -114 -84 -129 -137 -9 -34 -11 -194 -9 -655 l3
-610 25 -45 c16 -28 43 -55 74 -75 l49 -30 421 0 421 0 45 25 c118 66 145 217
57 317 -61 70 -78 73 -394 73 l-283 0 0 481 c0 352 -3 493 -12 523 -16 53 -81
118 -134 134 -49 14 -86 14 -134 -1z"/>
</g>
</svg>

