<svg
        xmlns="http://www.w3.org/2000/svg"
        width="100%"
        height="100%"
        viewBox="90 90 620 620"
        role="img"
        aria-hidden="true"
        preserveAspectRatio="xMidYMid meet"
>
    <defs>
        <linearGradient
                id="linear0"
                gradientUnits="userSpaceOnUse"
                x1="1417.449951"
                y1="1657.459961"
                x2="687.02301"
                y2="476.30899"
                gradientTransform="matrix(0.390625,0,0,0.390625,0,0)"
        >
            <stop offset="0" stop-color="rgb(252,167,6)" stop-opacity="1" />
            <stop offset="1" stop-color="rgb(255,231,96)" stop-opacity="1" />
        </linearGradient>
        <linearGradient
                id="linear1"
                gradientUnits="userSpaceOnUse"
                x1="1519.089966"
                y1="1529.150024"
                x2="1336.689941"
                y2="1316.949951"
                gradientTransform="matrix(0.390625,0,0,0.390625,0,0)"
        >
            <stop offset="0" stop-color="rgb(106,57,36)" stop-opacity="1" />
            <stop offset="1" stop-color="rgb(167,106,55)" stop-opacity="1" />
        </linearGradient>
    </defs>
    <g>
        <path
                stroke="none"
                fill-rule="nonzero"
                fill="url(#linear0)"
                d="M 98.917969 289.070312 C 98.667969 281.691406 98.867188 273.046875 98.863281 265.574219 L 98.851562 220.796875 C 98.839844 196.503906 98.695312 171.898438 98.90625 147.675781 C 99.902344 134.90625 100.601562 118.347656 110.347656 108.808594 C 116.328125 102.957031 127.320312 100.289062 135.386719 99.730469 C 152.316406 98.5625 169.5 98.9375 186.472656 98.972656 L 270.925781 98.992188 L 401.773438 99.011719 L 444.089844 99.007812 C 452.230469 99.007812 461.429688 98.804688 469.507812 99.148438 C 476.175781 98.511719 493.523438 99.027344 501.019531 99.046875 L 561.125 99.042969 L 626.203125 99.050781 C 633.371094 99.042969 641.605469 99.089844 648.609375 99.058594 C 681.535156 98.917969 701.0625 102.179688 703.296875 139.523438 C 704.496094 159.546875 703.988281 180.335938 703.980469 200.78125 L 703.964844 305.558594 L 703.960938 400.21875 C 703.980469 421.273438 704.636719 442.667969 702.480469 463.613281 C 701.457031 473.535156 698.152344 487.207031 690.886719 494.582031 C 689.253906 497.058594 687.175781 499.207031 685.175781 501.382812 C 675.585938 511.820312 665.28125 521.578125 655.097656 531.421875 L 583.417969 600.074219 C 562.34375 620.449219 541.132812 640.683594 519.789062 660.773438 C 511.125 668.835938 497.324219 682.28125 487.96875 688.945312 C 487.953125 688.960938 487.941406 688.976562 487.929688 688.988281 C 472.726562 702.316406 445.515625 703.097656 425.773438 703.40625 C 405.226562 703.726562 383.53125 703.476562 362.785156 703.480469 L 243.210938 703.484375 L 177.730469 703.492188 C 162.527344 703.492188 146.8125 703.914062 131.726562 702.164062 C 124.765625 701.355469 115.28125 698.496094 110.214844 693.496094 C 102.757812 686.132812 100.4375 672.21875 99.640625 662.109375 C 98.410156 646.53125 98.902344 629.503906 98.90625 613.746094 L 98.90625 529.441406 L 98.871094 372.660156 C 98.863281 345 98.519531 316.675781 98.917969 289.070312 Z"
        />
        <path
                stroke="none"
                fill-rule="nonzero"
                fill="rgb(254,230,124)"
                d="M 98.917969 289.070312 C 98.667969 281.691406 98.867188 273.046875 98.863281 265.574219 L 98.851562 220.796875 C 98.839844 196.503906 98.695312 171.898438 98.90625 147.675781 C 99.902344 134.90625 100.601562 118.347656 110.347656 108.808594 C 116.328125 102.957031 127.320312 100.289062 135.386719 99.730469 C 152.316406 98.5625 169.5 98.9375 186.472656 98.972656 L 270.925781 98.992188 L 401.773438 99.011719 L 444.089844 99.007812 C 452.230469 99.007812 461.429688 98.804688 469.507812 99.148438 L 469.550781 99.46875 C 467.050781 99.601562 448.335938 99.703125 448.109375 99.921875 C 457.289062 100.554688 467.34375 99.585938 476.601562 99.945312 C 481.960938 100.15625 488.421875 99.046875 493.074219 102.300781 L 492.691406 102.960938 C 490.730469 103.417969 489.039062 102.960938 487.082031 103.21875 C 483.148438 103.734375 479.363281 105.019531 475.371094 105.082031 C 473.898438 105.105469 474.074219 107.140625 472.597656 107.308594 C 469.667969 105.367188 469.820312 108.460938 467.386719 108.855469 C 463.304688 109.519531 459.878906 110.230469 455.894531 111.386719 L 455.503906 111.277344 C 451.570312 110.203125 446.273438 116.046875 440.160156 116.867188 C 439.203125 117.785156 438.675781 118.273438 437.9375 119.328125 C 435.347656 123.035156 432.277344 119.558594 428.742188 123.992188 C 425.957031 125.796875 421.121094 127.6875 418.308594 129.238281 C 414.882812 130.945312 410.019531 137.929688 406.367188 138.023438 C 394.738281 138.3125 387.105469 144.984375 377.96875 151.148438 C 373.777344 153.980469 373.289062 153.824219 368.71875 155.433594 C 367.183594 155.972656 364.019531 163.242188 362.054688 164.078125 C 357.296875 167.484375 350.683594 168.210938 346.875 172.957031 C 344.308594 172.363281 344.214844 172.058594 342.273438 173.3125 C 339.726562 174.957031 335.480469 178.796875 333.105469 180.109375 C 325.128906 184.515625 325.789062 180.691406 318.484375 188.28125 C 318.167969 187.890625 317.90625 187.566406 317.605469 187.160156 C 311.472656 188.371094 312.492188 190.589844 308.503906 192.886719 L 307.238281 192.539062 C 304.644531 194.441406 299.3125 197.546875 296.1875 197.667969 C 294.804688 197.71875 293.542969 198.425781 292.414062 199.1875 L 292.007812 198.371094 C 287.828125 201.515625 286.011719 206.164062 282.148438 209.414062 C 280.53125 210.777344 275.460938 211.585938 273.425781 212.765625 C 269.335938 215.140625 262.652344 220.496094 258.398438 222.035156 C 257.4375 221.734375 256.511719 221.410156 255.523438 221.226562 C 255.445312 221.296875 251.476562 224.757812 251.351562 224.789062 C 248.050781 225.652344 243.679688 225.800781 240.273438 226.214844 C 240.089844 226.617188 239.902344 227.023438 239.71875 227.425781 L 239.34375 226.632812 C 235.136719 229.972656 233.507812 232.371094 229.714844 235.625 C 225.625 239.132812 219.257812 240.449219 215.558594 244.355469 C 212.039062 248.070312 204.007812 249.738281 199.511719 252.210938 C 196.921875 253.632812 194.886719 257.542969 192.3125 258.320312 C 189.5 259.171875 182.859375 262.28125 180.21875 260.640625 C 179.289062 260.113281 177.996094 259.472656 176.957031 260.007812 C 173.289062 261.894531 167.578125 265.246094 164.820312 268.394531 C 161.195312 272.988281 158.246094 273 153.054688 274.644531 C 152.226562 274.90625 148.316406 278.90625 147.210938 279.195312 C 138.949219 281.332031 130.78125 283.691406 122.703125 286.496094 C 119.449219 287.628906 114.753906 288.222656 111.851562 289.550781 C 111.554688 290.710938 111.429688 291.257812 110.945312 292.390625 C 110.011719 292.324219 107.007812 289.316406 106.566406 288.367188 C 105.285156 290.03125 107.113281 290.015625 105.511719 290.242188 C 104.84375 289.582031 104.898438 289.617188 104.652344 288.703125 C 103.5625 290.5625 103.757812 292.550781 102.578125 293.363281 C 101.621094 291.476562 102.472656 290.628906 101.464844 289.429688 C 100.335938 289.992188 100.324219 290.992188 100.191406 292.210938 C 99.992188 288.277344 100.125 261.015625 99.78125 260.316406 C 99.730469 263.792969 99.851562 287.539062 98.917969 289.070312 Z"
        />
        <path
                stroke="none"
                fill-rule="nonzero"
                fill="url(#linear1)"
                d="M 678.632812 502.097656 C 684.367188 499.414062 687.429688 496.207031 690.886719 494.582031 C 689.253906 497.058594 687.175781 499.207031 685.175781 501.382812 C 675.585938 511.820312 665.28125 521.578125 655.097656 531.421875 L 583.417969 600.074219 C 562.34375 620.449219 541.132812 640.683594 519.789062 660.773438 C 511.125 668.835938 497.324219 682.28125 487.96875 688.945312 C 488.566406 686.972656 492.480469 682.863281 493.679688 680.78125 C 504.738281 661.566406 504.8125 636.609375 505.800781 615.097656 L 507.996094 567.917969 C 508.648438 554.527344 509.207031 527.726562 517.671875 517.429688 C 519.15625 518.011719 520.824219 515.878906 522.46875 514.804688 C 529.382812 510.300781 535.183594 509.082031 543.109375 508.15625 C 560.507812 506.109375 578.136719 507.855469 595.554688 508.832031 C 605.429688 509.386719 615.335938 509.230469 625.175781 510.15625 C 628.667969 510.488281 631.878906 510.445312 635.371094 510.238281 C 640.378906 508.804688 647.890625 509.652344 653.664062 507 C 664.460938 505.882812 668.125 505.804688 678.632812 502.097656 Z"
        />
        <path
                stroke="none"
                fill-rule="nonzero"
                fill="rgb(141,95,50)"
                d="M 653.664062 507 C 664.460938 505.882812 668.125 505.804688 678.632812 502.097656 C 673.066406 510.121094 644.484375 510.726562 635.371094 510.238281 C 640.378906 508.804688 647.890625 509.652344 653.664062 507 Z"
        />
        <path
                stroke="none"
                fill-rule="nonzero"
                fill="rgb(166,119,71)"
                d="M 517.671875 517.429688 C 529.96875 499.976562 567.398438 504.46875 586.5 504.980469 C 608.945312 505.582031 631.121094 507.433594 653.664062 507 C 647.890625 509.652344 640.378906 508.804688 635.371094 510.238281 C 631.878906 510.445312 628.667969 510.488281 625.175781 510.15625 C 615.335938 509.230469 605.429688 509.386719 595.554688 508.832031 C 578.136719 507.855469 560.507812 506.109375 543.109375 508.15625 C 535.183594 509.082031 529.382812 510.300781 522.46875 514.804688 C 520.824219 515.878906 519.15625 518.011719 517.671875 517.429688 Z"
        />
        <path
                stroke="none"
                fill-rule="nonzero"
                fill="rgb(209,154,69)"
                d="M 238.1875 373.945312 C 256.792969 373.347656 277.40625 373.824219 296.21875 373.832031 L 402.667969 373.84375 L 512.277344 373.804688 C 530.890625 373.796875 549.574219 373.746094 568.1875 373.832031 C 571.0625 374.015625 574.308594 373.941406 576.855469 375.515625 C 590.035156 383.6875 587.46875 402.789062 572.101562 406.386719 C 566.777344 406.742188 560.027344 406.570312 554.609375 406.566406 L 524.777344 406.535156 L 433.050781 406.492188 L 305.558594 406.488281 C 284.273438 406.492188 262.984375 406.558594 241.699219 406.496094 C 233.015625 406.472656 226.453125 402.257812 224.789062 393.277344 C 223.964844 388.710938 225.003906 384.003906 227.667969 380.203125 C 230.421875 376.34375 233.722656 374.765625 238.1875 373.945312 Z"
        />
        <path
                stroke="none"
                fill-rule="nonzero"
                fill="rgb(209,154,69)"
                d="M 237.210938 276.652344 C 244.28125 276.3125 252.484375 276.503906 259.671875 276.503906 L 298.152344 276.519531 L 416.683594 276.550781 L 518.582031 276.527344 L 552.265625 276.503906 C 558.1875 276.503906 564.140625 276.515625 570.042969 276.601562 C 584.320312 276.804688 589.917969 294.371094 580.871094 304.3125 C 577.632812 307.871094 574.21875 308.78125 569.621094 309.117188 C 554.492188 309.769531 535.074219 309.199219 519.582031 309.1875 L 424.328125 309.15625 L 302.019531 309.203125 C 281.957031 309.207031 261.9375 309.292969 241.832031 309.199219 C 234.089844 309.566406 227.535156 305.492188 225.1875 297.726562 C 222.292969 288.144531 227.890625 279.265625 237.210938 276.652344 Z"
        />
        <path
                stroke="none"
                fill-rule="nonzero"
                fill="rgb(209,154,69)"
                d="M 239.003906 471.257812 C 248.984375 470.960938 260.300781 471.199219 270.394531 471.203125 L 328.546875 471.195312 L 368.058594 471.183594 C 375.121094 471.183594 382.113281 471.183594 389.171875 471.335938 C 408.640625 471.761719 410.308594 501.292969 390.070312 503.765625 C 379.84375 504.125 367.828125 503.859375 357.492188 503.859375 L 297.484375 503.851562 L 259.21875 503.855469 C 252.574219 503.855469 245.78125 503.964844 239.152344 503.644531 C 220.003906 502.722656 218.660156 473.371094 239.003906 471.257812 Z"
        />
    </g>
</svg>