<svg version="1.1" id="Layer_1" xmlns="http://www.w3.org/2000/svg" xmlns:xlink="http://www.w3.org/1999/xlink" x="0px" y="0px"
     width="100%" viewBox="0 0 500 500" enable-background="new 0 0 500 500" xml:space="preserve">
<path fill="#FFC107" opacity="1.000000" stroke="#FFC107" stroke-width="15" stroke-linejoin="round" stroke-linecap="round"
      d="
M366.000000,63.000248
	C390.470581,63.000248 414.441193,63.000248 438.774689,63.000248
	C438.857758,64.876053 438.990936,66.481804 438.991089,68.087570
	C439.001099,159.077377 438.982635,250.067184 439.070526,341.056915
	C439.073669,344.319794 438.073578,346.539307 435.791718,348.809052
	C406.609528,377.836365 377.548065,406.985046 348.339264,435.985413
	C346.787292,437.526306 344.196045,438.873779 342.086426,438.877045
	C250.096954,439.019257 158.107239,438.999359 66.117546,438.999023
	C65.300575,438.999023 64.483612,438.999023 63.333397,438.999023
	C63.333397,313.734009 63.333397,188.681625 63.333397,63.000248
	C164.000916,63.000248 264.750458,63.000248 366.000000,63.000248
M421.477234,335.757782
	C421.267670,335.281586 421.058105,334.805389 419.933044,334.264618
	C391.526245,334.264618 363.119476,334.264618 334.329163,334.264618
	C334.329163,363.626740 334.329163,392.238708 334.321167,421.406982
	C334.837189,421.247559 335.353210,421.088165 336.194397,420.330139
	C337.709961,419.059601 339.334900,417.898071 340.724854,416.502441
	C367.476135,389.641388 394.199860,362.752899 421.477234,335.757782
M105.046410,200.931610
	C105.038551,204.931458 105.021896,208.931290 105.024773,212.931137
	C105.029823,219.953857 105.034836,219.961395 112.222191,219.961517
	C204.719543,219.963257 297.216919,219.962708 389.714264,219.962372
	C390.714233,219.962372 391.720764,219.882339 392.712952,219.969040
	C396.035278,220.259354 397.101654,218.625427 397.009460,215.493515
	C396.857452,210.331223 396.947144,205.161804 396.710327,199.601379
	C396.522064,199.355652 396.286407,199.170120 395.065887,199.020233
	C298.709778,199.028473 202.353668,199.036713 105.607979,199.277740
	C105.364906,199.469513 105.183815,199.708298 105.046410,200.931610
M316.500000,167.949219
	C338.996857,167.949265 361.493744,167.949326 383.990601,167.949356
	C396.980621,167.949387 396.980621,167.949371 396.977417,155.207352
	C396.975342,146.980499 396.975342,146.977783 388.972565,146.977722
	C298.818146,146.977051 208.663696,146.977280 118.509262,146.977264
	C105.015427,146.977264 105.015427,146.977264 105.022614,160.224075
	C105.026802,167.943146 105.026802,167.948395 112.527542,167.948532
	C180.185028,167.949829 247.842514,167.949127 316.500000,167.949219
M239.500000,250.998779
	C211.669067,250.998779 183.838150,250.998764 156.007217,250.998779
	C141.175171,250.998795 126.339668,251.179977 111.513054,250.896240
	C106.624542,250.802689 104.293259,251.967072 104.959137,257.241577
	C105.311195,260.030212 105.310265,262.936218 104.959312,265.725159
	C104.297295,270.985992 106.611374,272.094727 111.502602,272.077148
	C157.664658,271.911652 203.827560,271.978882 249.990219,271.978760
	C255.656387,271.978729 261.327637,271.832153 266.986908,272.029510
	C270.544952,272.153595 272.263580,271.077423 272.027435,267.238525
	C271.792511,263.420013 271.793854,259.564575 272.027222,255.745850
	C272.261108,251.918671 270.563782,250.874222 266.996582,250.944031
	C258.167419,251.116821 249.332565,250.999512 239.500000,250.998779
z"/>
    <path fill="#E28E07" opacity="1.000000" stroke="none"
          d="
M316.000000,167.949112
	C247.842514,167.949127 180.185028,167.949829 112.527542,167.948532
	C105.026802,167.948395 105.026802,167.943146 105.022614,160.224075
	C105.015427,146.977264 105.015427,146.977264 118.509262,146.977264
	C208.663696,146.977280 298.818146,146.977051 388.972565,146.977722
	C396.975342,146.977783 396.975342,146.980499 396.977417,155.207352
	C396.980621,167.949371 396.980621,167.949387 383.990601,167.949356
	C361.493744,167.949326 338.996857,167.949265 316.000000,167.949112
z"/>
    <path fill="#E28E07" opacity="1.000000" stroke="none"
          d="
M105.997566,199.044968
	C202.353668,199.036713 298.709778,199.028473 395.667145,199.212128
	C396.462708,199.632553 396.684906,199.829681 396.934967,199.995392
	C396.947144,205.161804 396.857452,210.331223 397.009460,215.493515
	C397.101654,218.625427 396.035278,220.259354 392.712952,219.969040
	C391.720764,219.882339 390.714233,219.962372 389.714264,219.962372
	C297.216919,219.962708 204.719543,219.963257 112.222191,219.961517
	C105.034836,219.961395 105.029823,219.953857 105.024773,212.931137
	C105.021896,208.931290 105.038551,204.931458 105.232506,200.327347
	C105.643051,199.523911 105.836044,199.297867 105.997566,199.044968
z"/>
    <path fill="#FFF8E0" opacity="1.000000" stroke="none"
          d="
M334.329163,420.850677
	C334.329163,392.238708 334.329163,363.626740 334.329163,334.264618
	C363.119476,334.264618 391.526245,334.264618 420.393555,334.554382
	C420.879150,335.186096 420.904175,335.528076 420.929260,335.870056
	C394.199860,362.752899 367.476135,389.641388 340.724854,416.502441
	C339.334900,417.898071 337.709961,419.059601 335.774658,420.622314
	C335.013031,420.893188 334.671082,420.871948 334.329163,420.850677
z"/>
    <path fill="#E28E07" opacity="1.000000" stroke="none"
          d="
M240.000000,250.998779
	C249.332565,250.999512 258.167419,251.116821 266.996582,250.944031
	C270.563782,250.874222 272.261108,251.918671 272.027222,255.745850
	C271.793854,259.564575 271.792511,263.420013 272.027435,267.238525
	C272.263580,271.077423 270.544952,272.153595 266.986908,272.029510
	C261.327637,271.832153 255.656387,271.978729 249.990219,271.978760
	C203.827560,271.978882 157.664658,271.911652 111.502602,272.077148
	C106.611374,272.094727 104.297295,270.985992 104.959312,265.725159
	C105.310265,262.936218 105.311195,260.030212 104.959137,257.241577
	C104.293259,251.967072 106.624542,250.802689 111.513054,250.896240
	C126.339668,251.179977 141.175171,250.998795 156.007217,250.998779
	C183.838150,250.998764 211.669067,250.998779 240.000000,250.998779
z"/>
    <path fill="#FFE598" opacity="1.000000" stroke="none"
          d="
M421.203247,335.813904
	C420.904175,335.528076 420.879150,335.186096 420.851318,334.586670
	C421.058105,334.805389 421.267670,335.281586 421.203247,335.813904
z"/>
    <path fill="#FFE598" opacity="1.000000" stroke="none"
          d="
M334.325165,421.128845
	C334.671082,420.871948 335.013031,420.893188 335.612091,420.921631
	C335.353210,421.088165 334.837189,421.247559 334.325165,421.128845
z"/>
    <path fill="#E99A07" opacity="1.000000" stroke="none"
          d="
M105.802773,199.161346
	C105.836044,199.297867 105.643051,199.523911 105.241653,199.858597
	C105.183815,199.708298 105.364906,199.469513 105.802773,199.161346
z"/>
    <path fill="#E99A07" opacity="1.000000" stroke="none"
          d="
M396.822632,199.798386
	C396.684906,199.829681 396.462708,199.632553 396.135864,199.224411
	C396.286407,199.170120 396.522064,199.355652 396.822632,199.798386
z"/>
</svg>